<svg xmlns="http://www.w3.org/2000/svg" width="81" height="81" fill="none"><circle cx="40.615" cy="40.518" r="38.459" stroke="#DB790F" stroke-linecap="round" stroke-width="3.205"/><path fill="#4358C1" fill-rule="evenodd" d="M53.897 54.839a3.205 3.205 0 0 1-3.205-3.205V34.21h2.356v-4.688h-2.356a3.205 3.205 0 0 1 3.205-3.205h16.44a3.205 3.205 0 0 1 3.204 3.205v22.11a3.205 3.205 0 0 1-3.204 3.206h-5.642a3.2 3.2 0 0 1-2.586-1.312 3.2 3.2 0 0 1-2.586 1.312h-5.626Zm5.626-20.598h5.172v17.393h5.642V29.523h-16.44v22.11h5.626V34.242Z" clip-rule="evenodd"/><path fill="#4358C1" fill-rule="evenodd" d="M53.048 26.318a3.205 3.205 0 0 1 3.205 3.205h-2.356v7.78c-.27.073-.555.113-.849.113h-4.25v14.218a3.205 3.205 0 0 1-3.206 3.205h-5.626a3.205 3.205 0 0 1-3.205-3.205v-2.001a5.5 5.5 0 0 0 .693-.888c.635-.998.953-2.142.953-3.433 0-1.502-.419-2.682-1.256-3.539a4.591 4.591 0 0 0-.39-.36V37.83c.193-.247.363-.51.511-.79.373-.707.56-1.508.56-2.406 0-1.36-.357-2.472-1.07-3.335v-1.776a3.205 3.205 0 0 1 3.204-3.205h13.082Zm-7.456 7.893h7.456v-4.688H39.966v22.11h5.626V34.212Z" clip-rule="evenodd"/><path fill="#4358C1" fill-rule="evenodd" d="M31.964 36.964c.292-.373.438-.817.438-1.331 0-.615-.206-1.07-.62-1.362-.403-.292-.973-.438-1.709-.438-.504 0-.998.075-1.482.227a8.008 8.008 0 0 0-1.33.53c-.217.11-.421.222-.613.336a8.72 8.72 0 0 0-.492.313l-2.178-3.886a11.653 11.653 0 0 1 3.055-1.588c1.1-.373 2.455-.56 4.069-.56 2.087 0 3.73.464 4.93 1.391 1.2.928 1.8 2.274 1.8 4.038 0 .898-.187 1.7-.56 2.405a5.34 5.34 0 0 1-1.542 1.8 7.338 7.338 0 0 1-2.239 1.15v.09l.031.005c1.583.264 2.79.824 3.622 1.681l.007.008c.837.857 1.256 2.037 1.256 3.539 0 1.29-.318 2.435-.953 3.433-.625.998-1.563 1.78-2.813 2.344-1.25.565-2.808.847-4.674.847-1.22 0-2.283-.096-3.19-.287a15.324 15.324 0 0 1-2.829-.877v-4.87c.877.494 1.77.862 2.677 1.104.179.045.355.087.528.123.705.15 1.36.225 1.968.225 1.25 0 2.127-.197 2.631-.59.504-.404.756-.983.756-1.74 0-.574-.13-1.043-.393-1.406-.252-.373-.69-.65-1.316-.832-.615-.181-1.477-.272-2.586-.272h-1.225v-4.401h1.255c.988 0 1.785-.096 2.39-.287.605-.202 1.049-.49 1.33-.862Zm-8.115.5c-.043.21-.066.427-.066.649v4.401c0 .063.002.125.005.187a3.204 3.204 0 0 0-3.045 3.2v.902a22.249 22.249 0 0 0 2.356-.977v4.885l-.121.06c-.683.336-1.397.594-2.14.776a3.205 3.205 0 0 0 1.888 2.188c1.138.469 2.274.826 3.405 1.053 1.176.247 2.466.353 3.836.353 2.166 0 4.207-.325 5.993-1.13 1.616-.73 3.005-1.797 4.006-3.254V40.129a7.3 7.3 0 0 0-.496-.57c.178-.245.344-.502.496-.768v-8.473a7.594 7.594 0 0 0-1.974-2.257C36.054 26.56 33.635 26 31.102 26c-1.838 0-3.567.21-5.099.73l-.008.003a14.807 14.807 0 0 0-3.895 2.023 3.195 3.195 0 0 0-.853.92c.698.185 1.388.439 2.068.76.216.102.432.21.646.327L22.404 35.1l.956 1.706c.136.242.3.462.489.658Z" clip-rule="evenodd"/><path fill="#4358C1" fill-rule="evenodd" d="M18.034 37.114c-.027.033-.069.09-.12.18-.134.235-.291.618-.421 1.212-.116.564-.188 1.278-.188 2.163 0 1.227.13 2.089.305 2.664.137.418.27.586.32.64a1.152 1.152 0 0 0 .344.04c.497 0 .96-.079 1.402-.232.664-.23 1.341-.51 2.034-.843a3.205 3.205 0 0 1 4.594 2.888v1.089a11.604 11.604 0 0 1-2.356-1.013v4.87c.773.318 1.524.568 2.252.748a3.205 3.205 0 0 1-1.654 2.05c-1.086.55-2.23.95-3.425 1.198-1.16.254-2.364.373-3.603.373-2.54 0-4.922-.558-6.94-1.893l-.023-.015c-1.949-1.314-3.35-3.153-4.238-5.367l-.009-.021c-.847-2.155-1.22-4.584-1.22-7.206 0-1.959.244-3.82.773-5.559.526-1.739 1.316-3.32 2.41-4.686l.002-.003a11.576 11.576 0 0 1 4.107-3.25l.01-.005C14.055 26.353 15.873 26 17.775 26c1.287 0 2.568.157 3.838.464 1.34.311 2.631.81 3.87 1.479a3.2 3.2 0 0 1 1.525 1.83 11.542 11.542 0 0 0-3.03 1.58l1.935 3.455-.555 1.545a3.205 3.205 0 0 1-4.593 1.707 10.04 10.04 0 0 0-1.656-.754 3.186 3.186 0 0 0-1.076-.192Zm2.842-7.531a13.108 13.108 0 0 0-3.1-.378c-1.503 0-2.844.277-4.023.832a8.372 8.372 0 0 0-2.98 2.36c-.806 1.007-1.422 2.212-1.845 3.614-.423 1.391-.635 2.934-.635 4.628 0 2.329.333 4.34.998 6.034.676 1.684 1.694 2.984 3.055 3.902 1.371.907 3.095 1.361 5.172 1.361 1.039 0 2.017-.1 2.934-.302.928-.192 1.81-.5 2.647-.923v-4.885a22.33 22.33 0 0 1-2.374.983 7.384 7.384 0 0 1-2.45.409c-.938 0-1.714-.242-2.33-.726-.614-.494-1.078-1.225-1.39-2.193-.303-.978-.455-2.188-.455-3.63 0-1.059.086-2.002.258-2.828.181-.837.438-1.548.77-2.133.334-.585.737-1.028 1.21-1.33a2.946 2.946 0 0 1 1.634-.47c.484 0 .952.049 1.402.146.291.062.575.145.852.248.716.252 1.421.574 2.117.968l1.618-4.507a12.299 12.299 0 0 0-3.085-1.18Zm-2.957 14.385h.002-.002Z" clip-rule="evenodd"/></svg>