<svg xmlns="http://www.w3.org/2000/svg" width="110" height="110" fill="none"><circle cx="55.05" cy="55.294" r="53.031" stroke="#E3483A" stroke-linecap="round" stroke-width="3"/><mask id="a" width="82" height="37" x="13.428" y="39.048" fill="#000" maskUnits="userSpaceOnUse"><path fill="#fff" d="M13.428 39.048h82v37h-82z"/><path fill-rule="evenodd" d="M28.192 49.334c.744-.411 1.59-.617 2.536-.617 1.244 0 2.42.178 3.53.535 1.108.357 2.203.796 3.285 1.317l2.455-6.4a19.596 19.596 0 0 0-4.666-1.606c-1.582-.343-3.09-.515-4.523-.515-2.312 0-4.368.384-6.166 1.153-1.785.755-3.286 1.832-4.503 3.231-1.217 1.386-2.143 3.026-2.779 4.92-.622 1.893-.933 3.979-.933 6.257 0 3.046.48 5.721 1.44 8.026.974 2.306 2.482 4.11 4.523 5.414 2.056 1.29 4.693 1.934 7.91 1.934 1.543 0 2.996-.13 4.362-.39 1.38-.261 2.725-.687 4.036-1.277v-6.874a37.777 37.777 0 0 1-3.712 1.338c-1.217.37-2.488.555-3.813.555-1.46 0-2.677-.329-3.65-.988-.961-.658-1.678-1.632-2.151-2.922-.473-1.29-.71-2.882-.71-4.775 0-1.4.135-2.649.406-3.746.284-1.112.69-2.052 1.217-2.82.527-.769 1.163-1.352 1.906-1.75Zm37.94-.329c0 1.427-.317 2.662-.95 3.705a7.605 7.605 0 0 1-2.494 2.532 11.993 11.993 0 0 1-3.38 1.481v.124c2.465.302 4.366 1.036 5.704 2.202 1.352 1.153 2.028 2.793 2.028 4.92 0 1.646-.45 3.155-1.352 4.527-.901 1.359-2.303 2.45-4.204 3.273-1.901.81-4.344 1.214-7.33 1.214-2 0-3.704-.144-5.112-.432a25.947 25.947 0 0 1-4.098-1.194v-6.75a18.567 18.567 0 0 0 4.119 1.502c1.422.316 2.718.473 3.887.473 2.028 0 3.408-.281 4.14-.844.747-.562 1.12-1.317 1.12-2.264 0-.686-.176-1.269-.528-1.75-.352-.48-1.007-.85-1.965-1.11-.943-.261-2.302-.392-4.077-.392H49.74V54.11h1.943c1.578 0 2.824-.137 3.74-.411.929-.275 1.598-.645 2.006-1.112a2.47 2.47 0 0 0 .613-1.646c0-.796-.317-1.386-.95-1.77-.634-.384-1.472-.577-2.514-.577a9.01 9.01 0 0 0-2.62.37c-.817.248-1.528.522-2.134.824-.605.302-1.063.55-1.373.741l-3.464-5.434c1.281-.85 2.746-1.57 4.394-2.16 1.662-.59 3.83-.886 6.506-.886 3.183 0 5.683.618 7.5 1.853 1.83 1.235 2.746 2.936 2.746 5.104Zm25.74-5.457v6.31H80.442v22.605h-7.852V43.548h19.284Z" clip-rule="evenodd"/></mask><path fill="#4358C1" d="m28.192 49.334 1.416 2.646a2.24 2.24 0 0 0 .037-.02l-1.453-2.626Zm9.351 1.235-1.302 2.703a3 3 0 0 0 4.103-1.629l-2.8-1.074Zm2.455-6.4 2.8 1.073a3 3 0 0 0-1.482-3.768l-1.319 2.694Zm-4.666-1.606-.635 2.932.029.006.606-2.938Zm-10.69.638 1.17 2.763.01-.004-1.18-2.76Zm-4.502 3.231 2.254 1.98a1.08 1.08 0 0 1 .01-.011l-2.264-1.969Zm-2.779 4.92-2.844-.955-.006.018 2.85.937Zm.507 14.283-2.77 1.154c.003.004.005.01.006.014l2.764-1.168Zm4.523 5.414-1.614 2.528.02.013 1.594-2.541Zm12.272 1.543-.557-2.948-.006.001.563 2.947Zm4.036-1.276 1.231 2.736a3 3 0 0 0 1.77-2.736h-3Zm0-6.874h3a3 3 0 0 0-4.16-2.767l1.16 2.767Zm-3.712 1.338-.864-2.873-.01.003.874 2.87Zm-7.464-.433-1.697 2.474.016.011 1.681-2.485Zm-2.15-2.922-2.816 1.033 2.816-1.033Zm-.304-8.521-2.907-.743a1.142 1.142 0 0 0-.006.025l2.913.718Zm1.217-2.82-2.474-1.698 2.474 1.698ZM65.18 52.71l-2.564-1.558-.006.01 2.57 1.548Zm-2.493 2.532-1.602-2.536-.016.01 1.618 2.526Zm-3.38 1.481-.778-2.897a3 3 0 0 0-2.222 2.897h3Zm0 .124h-3a3 3 0 0 0 2.636 2.978l.364-2.978Zm5.704 2.202-1.971 2.262.025.021 1.946-2.283Zm.676 9.447 2.5 1.66.007-.013-2.507-1.647Zm-4.204 3.273 1.176 2.76.016-.007-1.192-2.753Zm-12.442.782-.602 2.94.602-2.94Zm-4.098-1.194h-3a3 3 0 0 0 1.925 2.801l1.075-2.8Zm0-6.75 1.347-2.681a3 3 0 0 0-4.347 2.68h3Zm4.119 1.502-.683 2.921.033.008.65-2.93Zm8.027-.37-1.805-2.396-.022.016 1.827 2.38Zm.592-4.014 2.42-1.774-2.42 1.774Zm-1.965-1.111-.799 2.891.011.003.788-2.895Zm-5.978-.392h-3a3 3 0 0 0 3 3v-3Zm0-6.113v-3a3 3 0 0 0-3 3h3Zm5.682-.411-.85-2.877-.011.003.861 2.874Zm2.007-1.112 2.258 1.977.028-.033-2.286-1.944Zm-.338-3.416 1.555-2.566-1.555 2.566Zm-7.267.617-1.338-2.685 1.338 2.685Zm-1.373.741-2.53 1.613a3 3 0 0 0 4.111.937l-1.58-2.55Zm-3.464-5.434-1.66-2.499a3 3 0 0 0-.87 4.112l2.53-1.613Zm4.394-2.16-1.004-2.828-.008.003 1.012 2.824Zm14.005.967L61.7 46.38l.009.007 1.678-2.487Zm28.488 5.956v3a3 3 0 0 0 3-3h-3Zm0-6.31h3a3 3 0 0 0-3-3v3Zm-11.432 6.31v-3a3 3 0 0 0-3 3h3Zm0 22.606v3a3 3 0 0 0 3-3h-3Zm-7.852 0h-3a3 3 0 0 0 3 3v-3Zm0-28.915v-3a3 3 0 0 0-3 3h3Zm-41.861 2.169c-1.396 0-2.751.308-3.988.993l2.905 5.25c.25-.14.586-.243 1.083-.243v-6Zm4.448.68a14.452 14.452 0 0 0-4.448-.68v6c.953 0 1.818.136 2.61.39l1.838-5.71Zm3.67 1.47a28.67 28.67 0 0 0-3.67-1.47l-1.838 5.71c.974.314 1.941.701 2.903 1.165l2.605-5.405Zm-1.65-4.773-2.454 6.401 5.602 2.148 2.455-6.4-5.603-2.149Zm-2.47 2.407c1.34.277 2.657.728 3.953 1.362l2.637-5.39a22.6 22.6 0 0 0-5.377-1.848L34.726 45.5Zm-3.917-.453c1.194 0 2.488.143 3.888.447l1.271-5.864c-1.765-.383-3.487-.583-5.159-.583v6Zm-4.988.912c1.365-.583 3.008-.912 4.988-.912v-6c-2.645 0-5.112.44-7.345 1.394l2.358 5.518Zm-3.417 2.44c.903-1.038 2.024-1.851 3.407-2.436l-2.336-5.526c-2.187.924-4.069 2.266-5.599 4.026l4.528 3.937Zm-2.199 3.906c.52-1.548 1.256-2.831 2.19-3.894l-4.51-3.96c-1.5 1.71-2.616 3.706-3.368 5.945l5.688 1.91Zm-.777 5.303c0-2.005.273-3.77.783-5.321l-5.7-1.873c-.734 2.236-1.083 4.642-1.083 7.194h6Zm1.21 6.873c-.779-1.869-1.21-4.139-1.21-6.873h-6c0 3.357.529 6.438 1.67 9.18l5.54-2.307Zm3.368 4.038c-1.512-.965-2.629-2.287-3.374-4.052l-5.528 2.335c1.202 2.845 3.101 5.133 5.673 6.774l3.229-5.057Zm6.296 1.463c-2.834 0-4.87-.569-6.316-1.476l-3.19 5.083c2.666 1.672 5.903 2.393 9.506 2.393v-6Zm3.798-.338a20.253 20.253 0 0 1-3.798.338v6c1.71 0 3.354-.144 4.923-.444L34.1 69.645Zm3.369-1.065a14.927 14.927 0 0 1-3.363 1.064l1.114 5.896a20.93 20.93 0 0 0 4.71-1.488l-2.461-5.472Zm-1.77-4.138v6.874h6v-6.874h-6Zm.153 4.21a40.752 40.752 0 0 0 4.007-1.444l-2.32-5.533a34.783 34.783 0 0 1-3.416 1.232l1.73 5.745Zm-4.678.683c1.609 0 3.175-.225 4.687-.685l-1.747-5.74c-.922.28-1.898.425-2.94.425v6Zm-5.332-1.503c1.579 1.068 3.419 1.503 5.332 1.503v-6c-1.007 0-1.601-.223-1.97-.473l-3.362 4.97Zm-3.285-4.374c.648 1.767 1.708 3.292 3.269 4.363l3.394-4.947c-.359-.247-.732-.67-1.03-1.483l-5.633 2.067Zm-.894-5.808c0 2.122.262 4.088.894 5.808l5.632-2.067c-.315-.86-.526-2.076-.526-3.741h-6Zm.493-4.464c-.34 1.38-.493 2.877-.493 4.464h6c0-1.213.118-2.214.319-3.029l-5.826-1.435Zm1.656-3.8c-.766 1.117-1.298 2.398-1.65 3.775l5.813 1.485c.217-.846.496-1.445.784-1.864l-4.947-3.396Zm2.965-2.697c-1.21.648-2.195 1.575-2.965 2.697l4.947 3.395c.285-.414.572-.653.849-.801l-2.83-5.29Zm40.968 7.579c.964-1.587 1.387-3.38 1.387-5.263h-6c0 .972-.212 1.648-.515 2.147l5.128 3.116Zm-3.454 3.51a10.605 10.605 0 0 0 3.46-3.52l-5.14-3.096a4.607 4.607 0 0 1-1.525 1.544l3.205 5.072Zm-4.204 1.843a14.994 14.994 0 0 0 4.22-1.853l-3.237-5.053a8.99 8.99 0 0 1-2.54 1.111l1.557 5.795Zm2.221-2.774v-.124h-6v.124h6Zm4.675-.06c-1.937-1.688-4.48-2.571-7.31-2.918l-.73 5.956c2.1.257 3.359.842 4.098 1.486l3.942-4.523Zm3.057 7.181c0-2.815-.929-5.366-3.082-7.202l-3.892 4.566c.55.47.974 1.198.974 2.636h6Zm-1.845 6.175a11.076 11.076 0 0 0 1.845-6.175h-6c0 1.063-.28 2-.86 2.881l5.015 3.294Zm-5.519 4.379c2.29-.992 4.213-2.41 5.512-4.367l-5-3.317c-.504.76-1.384 1.523-2.896 2.178l2.384 5.506Zm-8.522 1.461c3.224 0 6.106-.432 8.506-1.454l-2.351-5.52c-1.403.597-3.408.974-6.155.974v6Zm-5.714-.493c1.666.341 3.584.493 5.714.493v-6c-1.87 0-3.36-.136-4.51-.371L48.44 75.49Zm-4.57-1.332a28.946 28.946 0 0 0 4.57 1.332l1.203-5.878a22.948 22.948 0 0 1-3.625-1.056l-2.149 5.602Zm-1.926-9.552v6.751h6v-6.75h-6Zm7.802-1.418a15.564 15.564 0 0 1-3.455-1.262l-2.694 5.36a21.565 21.565 0 0 0 4.783 1.744l1.366-5.842Zm3.204.394c-.905 0-1.978-.123-3.237-.402l-1.3 5.858c1.586.352 3.104.544 4.537.544v-6Zm2.313-.223c.135-.104.1-.02-.356.073-.428.087-1.065.15-1.957.15v6c1.135 0 2.203-.077 3.155-.271.924-.188 1.945-.527 2.813-1.194l-3.655-4.758Zm-.053.115c0 .04-.004.048 0 .032a.416.416 0 0 1 .085-.168c.013-.017.014-.014-.01.005l3.611 4.791c1.51-1.138 2.314-2.785 2.314-4.66h-6Zm.052.025a.425.425 0 0 1-.056-.11c-.007-.022.004 0 .004.085h6c0-1.223-.324-2.452-1.109-3.523L55.262 63.5Zm-.333.01c.31.083.466.158.52.189.052.03-.054-.02-.187-.2l4.84-3.547c-.945-1.288-2.384-1.902-3.597-2.232l-1.576 5.79Zm-3.289-.287c1.685 0 2.725.13 3.278.283l1.598-5.783c-1.334-.369-3.012-.5-4.876-.5v6Zm-1.901 0h1.901v-6H49.74v6Zm-3-9.113v6.113h6V54.11h-6Zm4.943-3H49.74v6h1.943v-6Zm2.878-.285c-.514.154-1.429.285-2.878.285v6c1.706 0 3.284-.143 4.6-.538l-1.722-5.747Zm.611-.214c.07-.08.095-.075-.004-.02-.1.055-.287.14-.595.23l1.699 5.755c1.193-.352 2.476-.94 3.415-2.013L55.17 50.61Zm-.13.33c0-.029.006-.093.035-.171a.46.46 0 0 1 .067-.126l4.57 3.887a5.468 5.468 0 0 0 1.328-3.59h-6Zm.494.795a1.106 1.106 0 0 1-.375-.415.905.905 0 0 1-.12-.38h6c0-1.751-.786-3.36-2.395-4.336l-3.11 5.131Zm-.958-.142c.705 0 .947.135.958.142l3.11-5.13c-1.255-.762-2.69-1.011-4.069-1.011v6Zm-1.752.242a6.013 6.013 0 0 1 1.752-.242v-6c-1.198 0-2.366.16-3.488.5l1.736 5.742Zm-1.663.637c.421-.21.968-.426 1.663-.636l-1.736-5.744c-.94.284-1.814.617-2.604 1.01l2.677 5.37Zm-1.13.606c.19-.119.55-.317 1.13-.606l-2.677-5.37a20.87 20.87 0 0 0-1.615.877l3.161 5.099Zm-7.576-6.37 3.465 5.433 5.059-3.226-3.465-5.433-5.059 3.225Zm5.912-6.599c-1.845.66-3.532 1.484-5.041 2.486l3.318 4.999c1.054-.7 2.296-1.317 3.746-1.836l-2.023-5.649Zm7.518-1.06c-2.86 0-5.405.31-7.51 1.057l2.008 5.654c1.218-.432 3.01-.712 5.502-.712v-6Zm9.186 2.37c-2.491-1.693-5.659-2.37-9.186-2.37v6c2.839 0 4.67.556 5.813 1.333l3.373-4.962Zm4.06 7.586c0-3.187-1.43-5.811-4.069-7.591l-3.355 4.974c1.022.69 1.424 1.468 1.424 2.617h6Zm25.74.852v-6.31h-6v6.31h6Zm-14.431 3h11.432v-6H80.44v6Zm3 19.606V49.857h-6v22.606h6Zm-10.852 3h7.852v-6h-7.852v6Zm-3-31.915v28.915h6V43.548h-6Zm22.284-3H72.589v6h19.284v-6Z" mask="url(#a)"/></svg>