<svg xmlns="http://www.w3.org/2000/svg" width="111" height="111" fill="none"><path stroke="#E3483A" stroke-linecap="round" stroke-width="3" d="M71.04 34.994c1.698-10.81 1.887-20.208-11.607-24.626-15.46-3.503-28.541 7.008-35.676 23.359C16.62 50.077 19 75.772 33.27 93.29c14.271 17.519 40.88 17.519 47.57 0 1.38-3.616 1.735-6.585 1.418-9.184"/><path stroke="#4358C1" stroke-linecap="round" stroke-linejoin="round" stroke-width="3" d="m60.043 50.62-16.37-8.929 13.393 13.394-28.276 16.37 28.276-8.184-3.72 21.579 10.417-21.58 14.883 16.371-9.674-19.347 20.835 2.977-18.602-8.186L84.599 43.18l-17.115 5.953-3.72-23.068-3.721 24.556Z"/></svg>