<svg xmlns="http://www.w3.org/2000/svg" width="104" height="104" fill="none"><ellipse cx="18.366" cy="15.743" stroke="#E3483A" stroke-linecap="round" stroke-width="3" rx="18.366" ry="15.743" transform="scale(-1 1) rotate(23.69 -151.673 -178.294)"/><ellipse cx="7.871" cy="6.559" stroke="#E3483A" stroke-linecap="round" stroke-width="3" rx="7.871" ry="6.559" transform="scale(-1 1) rotate(23.69 -178.812 -157.863)"/><ellipse cx="18.005" cy="12.643" stroke="#E3483A" stroke-linecap="round" stroke-width="3" rx="18.005" ry="12.643" transform="matrix(-.5128 -.8585 -.92552 .3787 51.151 40.097)"/><ellipse cx="8.284" cy="4.552" stroke="#E3483A" stroke-linecap="round" stroke-width="3" rx="8.284" ry="4.552" transform="matrix(-.5128 -.8585 -.92552 .3787 39.85 34.337)"/><path stroke="#4358C1" stroke-linecap="round" stroke-width="3" d="M83.55 36.077c5.744-5.265 4.647-14.205 3.083-19.054a1.202 1.202 0 0 0-1.691-.7c-4.265 2.112-11.48 6.657-13.855 11.883-2.009 4.417-6.194 9.117-9.322 12.158-.858.833-.314 2.308.881 2.259 6.207-.253 15.687-1.764 20.904-6.546ZM38.69 60.347c8.106 6.676 9.604 15.302 9.318 19.774-.044.688-.667 1.167-1.35 1.073-6.875-.937-17.454-4.428-22.4-8.384-4.688-3.75-8.853-9.875-9.687-13.789-.151-.708.438-1.29 1.156-1.38 1.453-.182 3.024-.698 2.628-1.886-.205-.614-.682-1.314-1.254-1.992-.799-.949-.185-2.473 1.043-2.298 5.35.765 13.575 3.141 20.545 8.882Z"/></svg>