<svg xmlns="http://www.w3.org/2000/svg" width="104" height="104" fill="none"><ellipse cx="36.049" cy="58.489" stroke="#E3483A" stroke-linecap="round" stroke-width="3" rx="18.258" ry="15.65" transform="rotate(23.69 36.049 58.489)"/><ellipse cx="36.05" cy="58.489" stroke="#E3483A" stroke-linecap="round" stroke-width="3" rx="7.825" ry="6.521" transform="rotate(23.69 36.05 58.489)"/><ellipse cx="17.899" cy="12.568" stroke="#E3483A" stroke-linecap="round" stroke-width="3" rx="17.899" ry="12.568" transform="matrix(.5128 -.8585 .92552 .3787 54.775 40.167)"/><ellipse cx="8.235" cy="4.525" stroke="#E3483A" stroke-linecap="round" stroke-width="3" rx="8.235" ry="4.525" transform="matrix(.5128 -.8585 .92552 .3787 66.01 34.44)"/><path stroke="#4358C1" stroke-linecap="round" stroke-width="3" d="M63.46 53.124v11.161c0 1.092.866 1.977 1.936 1.977h5.697c1.519 0 2.447 1.702 1.646 3.019l-16.97 27.903a1.916 1.916 0 0 1-3.292 0l-8.485-13.952"/><rect width="38.595" height="14.346" x="19.366" y="7.062" stroke="#E3483A" stroke-linecap="round" stroke-width="3" rx="7.173" transform="rotate(24.68 19.366 7.062)"/></svg>