<svg xmlns="http://www.w3.org/2000/svg" id="Слой_1" data-name="Слой 1" viewBox="0 0 448 422.32"><defs><style>.cls-1{fill:#006a16}.cls-2{fill:#6bbc28}</style></defs><path d="M123 116.22c28-4.74 33.73 12.84 40.73 12.42a3.1 3.1 0 0 0 2.77-3.53 4.19 4.19 0 0 1 6.21-4.15c8.65 4.38 13 11.94 18.53 18.11a1.74 1.74 0 0 0 2.52 0 4 4 0 0 1 5.89.44 66.39 66.39 0 0 1 13.75 34.38 3.68 3.68 0 0 1-.28 1.7c4.89-8.7-.44-40.9-25.5-63.38a4.17 4.17 0 0 0-7 2.48 3.07 3.07 0 0 1-3.53 2.73c-6.85-1.31-8.05-19.67-36.22-22a102.93 102.93 0 0 0-29.56 2 6.11 6.11 0 0 0-4.38 5 71.94 71.94 0 0 0 .82 17.72 104.19 104.19 0 0 1 15.25-3.92Z" class="cls-1"/><path d="M91.61 131.42c2.83 17.85 14.8 39.5 31 46.36a1.44 1.44 0 0 1 .58 2.28c-.48.55-1 1.17-1.5 1.8a4.12 4.12 0 0 0 1 6.07c6.86 4.38 21.95 13 35.41 13.47a1.42 1.42 0 0 1 1.38 1.33l.07 1.06a4 4 0 0 0 3.84 3.77 69.57 69.57 0 0 0 43.89-13.46 4 4 0 0 0 .2-6.25c-2.23-1.82-4.73-3.78-6-4.64-13.68-9.12-31.71-11.58-30.14-14.68s17.94.94 36.46 9.25a3.93 3.93 0 0 0 5.53-3.94 66.39 66.39 0 0 0-13.75-34.38 4 4 0 0 0-5.89-.44 1.74 1.74 0 0 1-2.52 0c-5.52-6.17-9.88-13.73-18.53-18.11a4.19 4.19 0 0 0-6.21 4.15 3.1 3.1 0 0 1-2.77 3.53c-7 .42-12.72-17.16-40.73-12.42a103.87 103.87 0 0 0-28.3 9.29 6.15 6.15 0 0 0-3.02 5.96Z" class="cls-2"/><path d="M354.15 126.94a71.42 71.42 0 0 0-15.77-8.15 103.13 103.13 0 0 1-4.25 15.21c-9.9 26.63-28 22.79-31.12 29.07a3.08 3.08 0 0 0 1.67 4.15 4.2 4.2 0 0 1 .49 7.46c-8.11 5.3-16.84 5.29-24.95 7a1.75 1.75 0 0 0-1.22 2.21 4 4 0 0 1-3.32 4.88 66.38 66.38 0 0 1-36.68-5.34 3.61 3.61 0 0 1-1.33-1.1c5.08 8.59 35.63 20.07 67.63 9.61a4.16 4.16 0 0 0 1.36-7.31 3.07 3.07 0 0 1-.6-4.42c4.57-5.28 21.06 2.86 37.13-20.39a103.66 103.66 0 0 0 13-26.61 6.13 6.13 0 0 0-2.04-6.27Z" class="cls-1"/><path d="M336.64 99.21C319.76 92.73 295 92.28 281 102.9a1.43 1.43 0 0 1-2.26-.63c-.24-.69-.52-1.46-.81-2.21a4.12 4.12 0 0 0-5.76-2.16c-7.22 3.75-22.2 12.53-29.37 23.92a1.41 1.41 0 0 1-1.84.54l-1-.47a4 4 0 0 0-5.19 1.44 69.62 69.62 0 0 0-10.29 44.74 4 4 0 0 0 5.32 3.3c2.69-1 5.64-2.21 7-2.89 14.74-7.28 25.88-21.68 27.78-18.76s-9.78 15.07-26.24 26.95a3.93 3.93 0 0 0 .65 6.76 66.36 66.36 0 0 0 36.64 5.28 4 4 0 0 0 3.33-4.88 1.75 1.75 0 0 1 1.22-2.21c8.11-1.7 16.84-1.69 24.95-7a4.2 4.2 0 0 0-.49-7.46A3.08 3.08 0 0 1 303 163c3.14-6.28 21.22-2.44 31.12-29.07a103.82 103.82 0 0 0 6.1-29.15 6.14 6.14 0 0 0-3.58-5.57Z" class="cls-2"/><path d="M213.19 308c-18.12-21.89-5.75-35.63-9.61-41.49a3.09 3.09 0 0 0-4.44-.62 4.2 4.2 0 0 1-6.71-3.31c-.53-9.67 3.84-17.23 6.43-25.1a1.75 1.75 0 0 0-1.31-2.16A4 4 0 0 1 195 230a66.38 66.38 0 0 1 22.9-29.1 3.57 3.57 0 0 1 1.61-.6c-10 .11-35.2 20.83-42.14 53.76a4.17 4.17 0 0 0 5.65 4.84 3.08 3.08 0 0 1 4.13 1.69c2.29 6.59-13 16.81-.9 42.35a103.09 103.09 0 0 0 16.53 24.59 6.1 6.1 0 0 0 6.47 1.31 71.43 71.43 0 0 0 14.95-9.58A102.12 102.12 0 0 1 213.19 308Z" class="cls-1"/><path d="M242 327.51c14-11.37 26.81-32.57 24.64-50.05a1.43 1.43 0 0 1 1.68-1.64c.71.14 1.51.28 2.31.4a4.12 4.12 0 0 0 4.75-3.91c.36-8.13.25-25.49-6-37.39a1.42 1.42 0 0 1 .45-1.86l.89-.6a4 4 0 0 0 1.34-5.21A69.58 69.58 0 0 0 238.45 196a4 4 0 0 0-5.51 3c-.46 2.84-.91 6-1 7.52-1.07 16.4 5.83 33.25 2.35 33.45s-8.16-16-10.22-36.21a3.93 3.93 0 0 0-6.17-2.82A66.38 66.38 0 0 0 195 230a4 4 0 0 0 2.56 5.32 1.75 1.75 0 0 1 1.31 2.16c-2.59 7.87-7 15.43-6.43 25.1a4.2 4.2 0 0 0 6.71 3.31 3.09 3.09 0 0 1 4.44.62c3.86 5.86-8.51 19.6 9.61 41.49a104 104 0 0 0 22.19 19.87 6.16 6.16 0 0 0 6.61-.36Z" class="cls-2"/></svg>