<svg width="126" height="125" viewBox="0 0 126 125" fill="none" xmlns="http://www.w3.org/2000/svg">
<path d="M37.2596 68.7867C36.4668 56.0445 45.5686 42.0791 30.6124 37.0714C19.8107 34.5675 10.6706 42.0791 5.6852 53.7636C0.69977 65.4483 2.36158 83.8097 12.3324 96.3289C22.3033 108.848 40.8948 108.848 45.5686 96.3289C50.2425 83.8099 38.0906 82.1408 37.2596 68.7867Z" stroke="#4358C1" stroke-width="3.20492" stroke-linecap="round"/>
<path d="M89.0113 68.7867C89.8041 56.0445 80.7023 42.0791 95.6585 37.0714C106.46 34.5675 115.6 42.0791 120.586 53.7636C125.571 65.4483 123.909 83.8097 113.938 96.3289C103.968 108.848 85.3761 108.848 80.7023 96.3289C76.0284 83.8099 88.1803 82.1408 89.0113 68.7867Z" stroke="#4358C1" stroke-width="3.20492" stroke-linecap="round"/>
<path d="M46.1707 74.6293C49.4943 73.7948 53.6487 72.1256 55.5402 68.7871M77.745 74.6293C71.3747 73.7948 60.5256 72.9601 55.5402 55.4332" stroke="#4358C1" stroke-width="3.20492" stroke-linecap="round"/>
<path d="M55.5394 7.85974V82.1406C55.8164 88.8174 55.2071 104.174 50.554 112.187" stroke="#4358C1" stroke-width="3.20492" stroke-linecap="round"/>
<path d="M79.6356 52.0947C77.6969 52.0947 72.9884 50.7594 69.6648 45.4178" stroke="#E3483A" stroke-width="3.20492" stroke-linecap="round"/>
<path d="M69.6658 5.3562V58.7715" stroke="#E3483A" stroke-width="3.20492" stroke-linecap="round"/>
<path d="M69.6653 80.4719V87.1488C69.6653 94.6604 69.9977 109.183 74.6507 117.195" stroke="#E3483A" stroke-width="3.20492" stroke-linecap="round"/>
</svg>
