<svg width="129" height="123" viewBox="0 0 129 123" fill="none" xmlns="http://www.w3.org/2000/svg">
<path d="M77.4418 105.929C82.1988 105.929 86.0551 102.252 86.0551 97.7159C86.0551 93.1802 82.1988 89.5033 77.4418 89.5033C72.6849 89.5033 68.8286 93.1802 68.8286 97.7159C68.8286 102.252 72.6849 105.929 77.4418 105.929Z" stroke="#E3483A" stroke-width="3.20492"/>
<path d="M59.3559 86.2184C62.6858 86.2184 65.3852 83.6445 65.3852 80.4695C65.3852 77.2945 62.6858 74.7207 59.3559 74.7207C56.0261 74.7207 53.3267 77.2945 53.3267 80.4695C53.3267 83.6445 56.0261 86.2184 59.3559 86.2184Z" stroke="#E3483A" stroke-width="3.20492"/>
<path d="M73.9975 71.4355C75.9003 71.4355 77.4428 69.9647 77.4428 68.1504C77.4428 66.3361 75.9003 64.8654 73.9975 64.8654C72.0948 64.8654 70.5522 66.3361 70.5522 68.1504C70.5522 69.9647 72.0948 71.4355 73.9975 71.4355Z" stroke="#E3483A" stroke-width="3.20492"/>
<path d="M68.8293 57.4743C70.2564 57.4743 71.4133 56.3712 71.4133 55.0105C71.4133 53.6498 70.2564 52.5468 68.8293 52.5468C67.4022 52.5468 66.2454 53.6498 66.2454 55.0105C66.2454 56.3712 67.4022 57.4743 68.8293 57.4743Z" stroke="#E3483A" stroke-width="2.13662"/>
<path d="M79.165 45.9768C80.5921 45.9768 81.749 44.8737 81.749 43.513C81.749 42.1523 80.5921 41.0492 79.165 41.0492C77.7379 41.0492 76.5811 42.1523 76.5811 43.513C76.5811 44.8737 77.7379 45.9768 79.165 45.9768Z" stroke="#E3483A" stroke-width="2.13662"/>
<path d="M73.1365 34.4788C74.0879 34.4788 74.8591 33.7434 74.8591 32.8363C74.8591 31.9291 74.0879 31.1937 73.1365 31.1937C72.1851 31.1937 71.4138 31.9291 71.4138 32.8363C71.4138 33.7434 72.1851 34.4788 73.1365 34.4788Z" fill="#E3483A"/>
<path d="M54.1871 12.569C61.43 7.46718 70.0026 5.28605 79.322 7.29989C104.1 15.034 89.0209 36.6025 90.3344 56.282C91.711 76.9062 111.843 79.4841 104.1 98.819C96.3568 118.154 65.5564 118.154 49.0378 98.819C45.1059 94.2166 41.9539 89.1031 39.5447 83.739" stroke="#E3483A" stroke-width="3.20492" stroke-linecap="round"/>
<path d="M46.5778 42.5655L48.5497 18.1236C48.683 16.4697 46.4541 15.6911 45.4356 17.0358L17.4 54.0488C16.5772 55.135 17.3912 56.653 18.7965 56.653H33.8235C34.9655 56.653 35.7914 57.6933 35.4815 58.7414L29.0167 80.596C28.5032 82.3317 30.8731 83.4738 32.0343 82.0503L60.6378 46.985C61.5179 45.906 60.7115 44.3341 59.278 44.3341H48.2954C47.2919 44.3341 46.5008 43.5195 46.5778 42.5655Z" stroke="#4358C1" stroke-width="3.20492"/>
</svg>
