<svg xmlns="http://www.w3.org/2000/svg" width="51" height="73" fill="none"><g clip-path="url(#a)"><path fill="#fff" d="M44.11 73H6.892a3.168 3.168 0 0 1-3.166-3.168V15.893a1.283 1.283 0 1 1 2.567 0v53.94c0 .337.27.607.608.607h37.217c.338 0 .609-.27.609-.608V15.893a1.283 1.283 0 1 1 2.567 0v53.94a3.168 3.168 0 0 1-3.167 3.166h-.017Z"/><path fill="#fff" d="M40.976 65.584h-28.19c-.709 0-1.283-.574-1.283-1.283V23.308c0-.71.574-1.284 1.284-1.284h28.19a1.283 1.283 0 1 1 0 2.568H14.061v38.433h26.914a1.283 1.283 0 1 1 0 2.568v-.009Z"/><path fill="#DB790F" d="M48.763 12.05H2.247A2.25 2.25 0 0 1 .001 9.805V2.381A2.245 2.245 0 0 1 2.247.135h46.516a2.25 2.25 0 0 1 2.246 2.246v7.432a2.25 2.25 0 0 1-2.246 2.246v-.008ZM2.568 9.493h45.874v-6.79H2.568v6.79Z"/><path fill="#DB790F" d="M8.235 7.372c-.71 0-1.284-.574-1.284-1.284v-4.67a1.283 1.283 0 1 1 2.567 0v4.679c0 .71-.574 1.284-1.283 1.284v-.009ZM15.143 7.372c-.71 0-1.284-.574-1.284-1.284v-4.67a1.283 1.283 0 1 1 2.568 0v4.679c0 .71-.575 1.284-1.284 1.284v-.009ZM22.051 7.372c-.71 0-1.283-.574-1.283-1.284v-4.67a1.283 1.283 0 1 1 2.567 0v4.679c0 .71-.574 1.284-1.284 1.284v-.009ZM28.96 7.372c-.71 0-1.284-.574-1.284-1.284v-4.67a1.283 1.283 0 1 1 2.567 0v4.679c0 .71-.574 1.284-1.284 1.284v-.009ZM35.867 7.372c-.71 0-1.284-.574-1.284-1.284v-4.67a1.283 1.283 0 1 1 2.567 0v4.679c0 .71-.574 1.284-1.283 1.284v-.009ZM42.776 7.372c-.71 0-1.284-.574-1.284-1.284v-4.67a1.283 1.283 0 1 1 2.568 0v4.679c0 .71-.575 1.284-1.284 1.284v-.009Z"/></g><defs><clipPath id="a"><path fill="#fff" d="M.001.135h51v72.864h-51z"/></clipPath></defs></svg>