<svg xmlns="http://www.w3.org/2000/svg" width="73" height="68" fill="none"><g clip-path="url(#a)"><g fill="#DB790F"><path d="M54.895 67.86c-9.495 0-17.22-7.724-17.22-17.22 0-7.256 4.666-13.813 11.453-16.231V12.983a1.13 1.13 0 0 1 1.131-1.13h9.28a1.13 1.13 0 0 1 1.131 1.13V34.41c6.787 2.418 11.454 8.967 11.454 16.23 0 9.496-7.725 17.221-17.221 17.221h-.008Zm-3.512-53.746v21.113c0 .499-.328.938-.804 1.08-6.266 1.882-10.65 7.776-10.65 14.325 0 8.253 6.713 14.959 14.96 14.959 8.245 0 14.957-6.713 14.957-14.959 0-6.549-4.376-12.443-10.649-14.326a1.125 1.125 0 0 1-.804-1.079V14.114h-7.017.007Z"/><path d="M61.697 14.114H48.101a1.13 1.13 0 1 1 0-2.262h13.596a1.13 1.13 0 1 1 0 2.262ZM69.22 45.14h-23.5a1.13 1.13 0 1 1 0-2.262h23.5a1.13 1.13 0 1 1 0 2.262ZM59.53 19.986h-2.604a1.13 1.13 0 1 1 0-2.262h2.605a1.13 1.13 0 1 1 0 2.262ZM59.53 25.426h-2.604a1.13 1.13 0 1 1 0-2.262h2.605a1.13 1.13 0 1 1 0 2.262ZM59.53 30.866h-2.604a1.13 1.13 0 1 1 0-2.262h2.605a1.13 1.13 0 1 1 0 2.262Z"/></g><g fill="#4358C1"><path d="M36.364 66.885H8.86A8.801 8.801 0 0 1 1.358 53.49l13.946-22.75V1.99a1.13 1.13 0 0 1 1.13-1.13h12.347a1.13 1.13 0 0 1 1.131 1.13v28.756l6.98 11.379a1.135 1.135 0 0 1-.371 1.555 1.135 1.135 0 0 1-1.556-.372l-7.144-11.654a1.097 1.097 0 0 1-.164-.588V3.123H17.566v27.944c0 .209-.06.41-.164.588L3.285 54.673a6.515 6.515 0 0 0-.968 3.416 6.543 6.543 0 0 0 6.534 6.534h27.506a6.531 6.531 0 0 0 2.947-.7 1.128 1.128 0 0 1 1.518.499c.283.558.06 1.235-.498 1.518a8.7 8.7 0 0 1-3.967.945h.007Z"/><path d="M30.678 3.123H14.544a1.13 1.13 0 1 1 0-2.263h16.134a1.13 1.13 0 1 1 0 2.263ZM28.55 10.08h-3.097a1.13 1.13 0 1 1 0-2.262h3.096a1.13 1.13 0 1 1 0 2.263ZM28.55 16.533h-3.097a1.13 1.13 0 1 1 0-2.262h3.096a1.13 1.13 0 1 1 0 2.262ZM28.55 22.993h-3.097a1.13 1.13 0 1 1 0-2.263h3.096a1.13 1.13 0 1 1 0 2.263Z"/></g></g><defs><clipPath id="a"><path fill="#fff" d="M.062.86h72.053v67H.062z"/></clipPath></defs></svg>