<svg xmlns="http://www.w3.org/2000/svg" width="95" height="81" fill="none"><g clip-path="url(#a)"><g fill="#DB790F"><path d="M77.411 72.311a1.37 1.37 0 0 1-.782-.24 1.402 1.402 0 0 1-.377-1.94l12.955-19.194a14.947 14.947 0 0 0 2.493-9.606l-1.518-17.556c-.092-1.085-1.021-1.886-2.107-1.867a1.912 1.912 0 0 0-1.84 1.72l-2.006 20.28a1.401 1.401 0 0 1-1.527 1.25 1.401 1.401 0 0 1-1.252-1.527l2.006-20.279a4.715 4.715 0 0 1 4.536-4.242c2.577-.092 4.748 1.859 4.969 4.417l1.518 17.556c.35 4.02-.7 8.069-2.963 11.409L78.561 71.686a1.4 1.4 0 0 1-1.16.616l.01.01Z"/><path d="M62.258 64.104h-.102a1.393 1.393 0 0 1-1.297-1.49 9.298 9.298 0 0 1 2.08-5.245l12.743-15.541a4.932 4.932 0 0 1 6.726-.856 4.905 4.905 0 0 1 1.97 3.23 4.886 4.886 0 0 1-.893 3.671l-7.96 10.903a1.387 1.387 0 0 1-1.95.304 1.387 1.387 0 0 1-.304-1.95l7.96-10.904c.34-.46.478-1.03.386-1.6a2.145 2.145 0 0 0-3.782-1.021l-12.743 15.54a6.476 6.476 0 0 0-1.454 3.661 1.396 1.396 0 0 1-1.39 1.298h.01ZM79.086 80.933c-.073 0-.147 0-.212-.019l-21.54-3.34a1.4 1.4 0 0 1-.91-.552 1.349 1.349 0 0 1-.249-1.04l1.27-8.16c.055-.369.258-.691.552-.912.304-.22.672-.313 1.04-.248l21.54 3.34c.368.055.69.257.91.552.222.294.314.671.25 1.04l-1.27 8.16c-.111.691-.7 1.188-1.38 1.188v-.01ZM59.13 75.025l18.78 2.908.837-5.401-18.78-2.907-.837 5.4ZM17.43 72.311c-.451 0-.893-.211-1.16-.616L3.315 52.51A17.74 17.74 0 0 1 .353 41.09L1.87 23.537a4.822 4.822 0 0 1 4.978-4.416 4.715 4.715 0 0 1 4.536 4.241l2.006 20.28a1.401 1.401 0 0 1-1.252 1.527 1.401 1.401 0 0 1-1.527-1.251l-2.006-20.28a1.912 1.912 0 0 0-1.84-1.72c-1.086-.019-2.015.791-2.107 1.868L3.14 41.34c-.295 3.386.588 6.8 2.493 9.606L18.59 70.14a1.394 1.394 0 0 1-.377 1.941 1.37 1.37 0 0 1-.782.24v-.01Z"/><path d="M32.584 64.104a1.39 1.39 0 0 1-1.39-1.297 6.425 6.425 0 0 0-1.453-3.663l-12.743-15.54a2.162 2.162 0 0 0-2.926-.377c-.46.34-.764.837-.856 1.398a2.12 2.12 0 0 0 .386 1.601l7.96 10.903a1.395 1.395 0 1 1-2.254 1.647l-7.96-10.903a4.936 4.936 0 0 1 1.077-6.9 4.932 4.932 0 0 1 6.726.855l12.743 15.54a9.17 9.17 0 0 1 2.08 5.245 1.393 1.393 0 0 1-1.298 1.49h-.1.008ZM15.755 80.933c-.68 0-1.27-.497-1.38-1.187l-1.27-8.162a1.44 1.44 0 0 1 .249-1.04c.22-.294.552-.496.91-.551l21.54-3.34c.369-.056.737.036 1.04.248.304.212.497.543.553.91l1.27 8.162a1.44 1.44 0 0 1-.25 1.04 1.4 1.4 0 0 1-.91.552l-21.54 3.34c-.074.01-.147.019-.212.019v.009Zm.332-8.392.837 5.401 18.78-2.907-.838-5.401-18.78 2.907Z"/></g><path fill="#4358C1" d="M47.425 45.067c-.359 0-.718-.138-.984-.405L25.637 23.858a13.712 13.712 0 0 1-4.04-9.753c0-3.68 1.436-7.15 4.04-9.753A13.712 13.712 0 0 1 35.39.312c3.68 0 7.15 1.436 9.753 4.04l2.282 2.282 2.282-2.282c5.373-5.374 14.124-5.374 19.506 0a13.712 13.712 0 0 1 4.04 9.753c0 3.68-1.436 7.15-4.04 9.753L48.41 44.662a1.37 1.37 0 0 1-.985.405ZM35.381 3.11c-2.935 0-5.705 1.14-7.775 3.22a10.92 10.92 0 0 0-3.22 7.775c0 2.935 1.14 5.705 3.22 7.775l19.81 19.81 19.81-19.81c4.288-4.288 4.288-11.271 0-15.56-4.288-4.287-11.271-4.287-15.56 0L48.4 9.588a1.405 1.405 0 0 1-1.978 0l-3.266-3.266A10.92 10.92 0 0 0 35.38 3.1v.009Z"/></g><defs><clipPath id="a"><path fill="#fff" d="M.288.313h94.265v80.62H.288z"/></clipPath></defs></svg>