<svg xmlns="http://www.w3.org/2000/svg" width="79" height="87" fill="none"><g clip-path="url(#a)"><path fill="#fff" d="M77.361 86.46c-.77 0-1.43-.58-1.51-1.37l-2.23-22.04c-.56-5.6-4.84-10.15-10.4-11.05l-13.33-2.18-9.73 5.42c-.46.26-1.02.26-1.48 0l-9.73-5.42L15.621 52c-5.56.91-9.83 5.45-10.39 11.05l-2.23 22.04c-.08.83-.83 1.44-1.66 1.36-.83-.08-1.44-.83-1.36-1.66l2.23-22.04c.7-6.96 6.02-12.62 12.93-13.74l13.85-2.26c.34-.05.68 0 .98.17l9.45 5.27 9.45-5.27c.3-.17.64-.23.98-.17l13.85 2.26c6.91 1.13 12.22 6.78 12.93 13.74l2.23 22.04c.08.83-.52 1.58-1.36 1.66h-.15l.01.01Z"/><path fill="#fff" d="M29.251 49.75c-.2 0-.4-.04-.6-.12a1.516 1.516 0 0 1-.8-1.99l1.47-3.42a1.516 1.516 0 1 1 2.79 1.19l-1.47 3.42c-.25.58-.81.92-1.4.92h.01ZM49.631 49.75c-.59 0-1.15-.35-1.4-.92l-1.47-3.42a1.516 1.516 0 1 1 2.79-1.19l1.47 3.42a1.516 1.516 0 0 1-1.4 2.11h.01ZM39.441 43.51c-8.12 0-13.13-7.42-15.07-14.06-2.25-1.19-2.4-3.58-2.46-4.54l-.15-2.32c-.14-2.24.49-3.86 1.87-4.83-.09-3.16.11-12.21 4.96-14.56.09-.06.14-.18.18-.26.7-1.47 1.8-2.36 5.59-2.79 4.69-.53 11.54.41 14.97 3.22l.13.11c2.22 1.81 5.88 4.8 5.77 14.27 1.39.96 2.02 2.58 1.88 4.84l-.15 2.32c-.06.94-.21 3.27-2.33 4.48-1.85 6.96-6.75 14.13-15.2 14.13l.01-.01Zm-2.35-40.48c-.83 0-1.64.04-2.39.13-2.84.32-3.05.78-3.2 1.08-.21.44-.56 1.18-1.59 1.68-2.83 1.38-3.48 8.47-3.22 12.62.04.65-.34 1.26-.95 1.51-.57.23-1.07.58-.96 2.35l.15 2.32c.1 1.55.47 1.95 1.18 2.19.49.16.86.56.99 1.06 1.51 5.78 5.65 12.52 12.34 12.52 8.78 0 11.73-9.58 12.43-12.52.12-.5.48-.91.97-1.08.67-.24 1.01-.62 1.11-2.16l.15-2.32c.11-1.77-.39-2.12-.96-2.35-.59-.24-.97-.82-.95-1.46.32-8.71-2.66-11.14-4.64-12.76l-.13-.11c-2.2-1.8-6.55-2.68-10.32-2.68l-.01-.02Z"/><path fill="#fff" d="M53.181 13.49c-.69 0-1.31-.47-1.48-1.17-.16-.7-.54-1.19-1.17-1.55-2.02-1.15-6.45-.84-11.84.85-4.96 1.55-8.66 1.46-10.99-.26-1.81-1.33-2.29-3.34-2.29-4.32a1.52 1.52 0 0 1 3.04-.02c0 .08.07 1.19 1.1 1.92 1.49 1.06 4.42.98 8.25-.22 3.69-1.15 10.44-2.76 14.25-.59 1.36.77 2.26 1.98 2.62 3.49a1.523 1.523 0 0 1-1.48 1.87h-.01Z"/><path fill="#DB790F" d="M20.391 69.24c-.79 0-1.46-.61-1.51-1.41-.84-12.43 3.97-19.28 4.17-19.57a1.52 1.52 0 0 1 2.12-.35c.68.49.84 1.43.35 2.11-.06.09-4.37 6.35-3.61 17.59.06.84-.57 1.56-1.41 1.62h-.1l-.01.01ZM58.27 64.07h-.02a1.52 1.52 0 0 1-1.5-1.54c.1-8-2.87-12.49-2.9-12.53-.47-.69-.29-1.64.4-2.11s1.63-.3 2.1.39c.14.21 3.55 5.26 3.43 14.29-.01.83-.69 1.5-1.52 1.5h.01ZM20.401 81.82a5.42 5.42 0 0 1-5.41-5.41 5.42 5.42 0 0 1 5.41-5.41 5.42 5.42 0 0 1 5.41 5.41 5.42 5.42 0 0 1-5.41 5.41Zm0-7.77c-1.31 0-2.37 1.06-2.37 2.37s1.06 2.37 2.37 2.37 2.37-1.06 2.37-2.37-1.06-2.37-2.37-2.37Z"/><path fill="#DB790F" d="M52.651 82.68h-2.41c-.52 0-1.01-.27-1.28-.71-1.42-2.26-2.17-4.93-2.17-7.73 0-7.28 5.16-13.21 11.49-13.21s11.49 5.92 11.49 13.21c0 2.61-.66 5.13-1.91 7.29-.27.47-.77.76-1.31.76h-2.37a1.52 1.52 0 1 1 0-3.04h1.45c.72-1.52 1.1-3.24 1.1-5.02 0-5.61-3.79-10.17-8.46-10.17-4.67 0-8.46 4.56-8.46 10.17 0 1.94.45 3.79 1.3 5.4h1.54a1.52 1.52 0 1 1 0 3.04v.01Z"/></g><defs><clipPath id="a"><path fill="#fff" d="M.001 0h78.88v86.46H.001z"/></clipPath></defs></svg>