<svg xmlns="http://www.w3.org/2000/svg" width="94" height="95" fill="none"><g clip-path="url(#a)"><path fill="#DB790F" d="M47.899 94.331c-.43 0-.86-.05-1.29-.17l-41.96-11.08a5.062 5.062 0 0 1-3.6-6.19l19.07-72.19c.35-1.31 1.18-2.4 2.35-3.08 1.17-.68 2.53-.86 3.84-.52l41.96 11.09c1.31.35 2.4 1.18 3.08 2.35.68 1.17.86 2.53.52 3.84l-9.54 36.09a1.52 1.52 0 1 1-2.94-.78l9.54-36.09c.14-.52.06-1.07-.21-1.54a2 2 0 0 0-1.24-.94l-41.94-11.09c-.52-.14-1.07-.06-1.54.21a2 2 0 0 0-.94 1.24l-19.08 72.18a2.03 2.03 0 0 0 1.44 2.48l41.96 11.09c.52.14 1.07.06 1.54-.21a2 2 0 0 0 .94-1.24l.6-2.27a1.52 1.52 0 1 1 2.94.78l-.6 2.27a5.068 5.068 0 0 1-4.9 3.77Z"/><g fill="#DB790F"><path d="M40.809 82.201c-.54 0-1.08-.07-1.61-.21-3.33-.88-5.33-4.31-4.45-7.64.88-3.33 4.31-5.33 7.64-4.45 3.33.88 5.33 4.31 4.45 7.64a6.228 6.228 0 0 1-2.9 3.81c-.97.56-2.04.85-3.14.85h.01Zm-3.12-7.07c-.45 1.72.57 3.48 2.29 3.93.83.22 1.7.1 2.44-.33.74-.43 1.27-1.13 1.49-1.96.45-1.72-.57-3.48-2.29-3.93-1.72-.45-3.48.57-3.93 2.29ZM18.689 76.361c-.53 0-1.06-.07-1.6-.21-3.33-.88-5.33-4.31-4.45-7.64a6.228 6.228 0 0 1 2.9-3.81 6.192 6.192 0 0 1 4.74-.64c3.33.88 5.33 4.31 4.45 7.64a6.27 6.27 0 0 1-6.05 4.66h.01Zm0-9.47c-.56 0-1.12.15-1.61.44-.74.43-1.27 1.13-1.49 1.96-.45 1.72.57 3.48 2.29 3.93 1.72.45 3.48-.57 3.93-2.29.45-1.72-.57-3.48-2.29-3.93-.27-.07-.55-.11-.83-.11ZM47.508 56.811c-.53 0-1.06-.07-1.6-.21-3.33-.88-5.33-4.31-4.45-7.64.88-3.33 4.31-5.33 7.64-4.45 3.33.88 5.33 4.31 4.45 7.64a6.27 6.27 0 0 1-6.05 4.66h.01Zm0-9.48c-1.43 0-2.73.96-3.11 2.4-.45 1.72.57 3.48 2.29 3.93 1.72.45 3.48-.57 3.93-2.29.45-1.72-.57-3.48-2.29-3.93-.27-.07-.55-.11-.82-.11ZM25.399 50.971c-.53 0-1.06-.07-1.6-.21-3.33-.88-5.33-4.31-4.45-7.64a6.228 6.228 0 0 1 2.9-3.81 6.192 6.192 0 0 1 4.74-.64c3.33.88 5.33 4.31 4.45 7.64a6.27 6.27 0 0 1-6.05 4.66h.01Zm0-9.48c-.56 0-1.11.15-1.61.44-.74.43-1.27 1.13-1.49 1.96-.45 1.72.57 3.48 2.29 3.93 1.72.45 3.48-.57 3.93-2.29.45-1.72-.57-3.48-2.29-3.93-.27-.07-.55-.11-.83-.11ZM54.218 31.411c-.53 0-1.06-.07-1.6-.21-3.33-.88-5.33-4.31-4.45-7.64.88-3.33 4.31-5.33 7.64-4.45 1.62.43 2.97 1.46 3.81 2.9.84 1.44 1.07 3.13.64 4.74a6.27 6.27 0 0 1-6.05 4.66h.01Zm-3.11-7.07c-.45 1.72.57 3.48 2.29 3.93 1.72.45 3.48-.57 3.93-2.29.22-.83.1-1.7-.33-2.44a3.203 3.203 0 0 0-1.96-1.49c-1.72-.45-3.48.57-3.93 2.29ZM32.109 25.571c-.53 0-1.06-.07-1.6-.21-3.33-.88-5.33-4.31-4.45-7.64.88-3.33 4.31-5.33 7.64-4.45 3.33.88 5.33 4.31 4.45 7.64a6.27 6.27 0 0 1-6.05 4.66h.01Zm.01-9.47c-1.43 0-2.73.96-3.11 2.4-.45 1.72.57 3.48 2.29 3.93 1.71.45 3.48-.57 3.93-2.29.45-1.72-.57-3.48-2.29-3.93-.27-.07-.55-.11-.82-.11Z"/></g><g fill="#4358C1"><path d="M63.109 91.181c-3.97 0-7.64-2.63-8.76-6.64l-4.24-15.06c-1.36-4.83 1.46-9.87 6.29-11.23 2.34-.66 4.8-.37 6.92.82a9.047 9.047 0 0 1 4.31 5.47l4.24 15.06c1.36 4.83-1.46 9.87-6.29 11.23-.82.23-1.65.34-2.46.34l-.01.01Zm-4.23-30.23a6.065 6.065 0 0 0-5.84 7.71l4.24 15.06a6.063 6.063 0 0 0 2.87 3.65c1.41.79 3.05.99 4.61.55a6.063 6.063 0 0 0 3.65-2.87c.79-1.41.99-3.05.55-4.61l-4.24-15.06a6.063 6.063 0 0 0-2.87-3.65c-.92-.52-1.93-.78-2.96-.78h-.01Z"/><path d="M53.689 78.121c-.66 0-1.27-.44-1.46-1.11-.23-.81.24-1.65 1.05-1.87l10.34-2.91c.81-.23 1.64.24 1.87 1.05.23.81-.24 1.65-1.05 1.87l-10.34 2.91c-.14.04-.28.06-.41.06ZM81.239 76.891c-.65 0-1.3-.07-1.94-.21a9.015 9.015 0 0 1-5.73-3.97 9.04 9.04 0 0 1-1.25-6.85l3.31-15.3c1.06-4.9 5.91-8.03 10.82-6.97 4.9 1.06 8.03 5.91 6.97 10.82l-3.31 15.29a9.015 9.015 0 0 1-3.97 5.73 9.022 9.022 0 0 1-4.91 1.45l.01.01Zm3.29-30.47c-2.79 0-5.31 1.95-5.93 4.78l-3.31 15.3c-.34 1.58-.05 3.21.83 4.57.88 1.36 2.23 2.3 3.82 2.64 1.58.34 3.21.05 4.57-.83 1.36-.88 2.3-2.23 2.64-3.82l3.31-15.29c.71-3.27-1.38-6.5-4.65-7.21a6.27 6.27 0 0 0-1.28-.14Z"/><path d="M85.96 62.321c-.11 0-.21-.01-.32-.03l-10.49-2.27a1.51 1.51 0 0 1-1.16-1.8c.18-.82.98-1.34 1.8-1.16l10.49 2.27c.82.18 1.34.98 1.16 1.8-.15.71-.78 1.2-1.48 1.2v-.01Z"/></g></g><defs><clipPath id="a"><path fill="#fff" d="M.879.931h92.75v93.4H.879z"/></clipPath></defs></svg>