<svg xmlns="http://www.w3.org/2000/svg" width="89" height="98" fill="none"><g clip-path="url(#a)"><path fill="#DB790F" d="M74.848 59.06h-60.44a6.91 6.91 0 0 1-5.51-2.77l-3.33-4.5c-.34-.46-.39-1.07-.14-1.59.26-.51.78-.84 1.36-.84h75.69a1.52 1.52 0 0 1 1.22 2.43l-3.33 4.5a6.882 6.882 0 0 1-5.51 2.77h-.01Zm-65.05-6.65 1.54 2.08c.72.97 1.87 1.55 3.07 1.55h60.44c1.21 0 2.35-.58 3.07-1.55l1.54-2.08H9.798Z"/><path fill="#DB790F" d="M87.458 52.41H1.808a1.52 1.52 0 1 1 0-3.04h85.65a1.52 1.52 0 1 1 0 3.04ZM81.598 47.09c-.84 0-1.52-.68-1.52-1.52 0-19.55-15.9-35.45-35.45-35.45-19.55 0-35.45 15.91-35.45 35.45a1.52 1.52 0 1 1-3.04 0c.01-21.22 17.27-38.48 38.49-38.48 21.22 0 38.48 17.26 38.48 38.48 0 .84-.68 1.52-1.52 1.52h.01Z"/><path fill="#DB790F" d="M75.498 47.09c-.84 0-1.52-.68-1.52-1.52 0-16.18-13.16-29.35-29.35-29.35a1.52 1.52 0 1 1 0-3.04c17.86 0 32.38 14.53 32.38 32.38 0 .84-.68 1.52-1.52 1.52l.01.01ZM44.628 10.12c-2.63 0-4.77-2.14-4.77-4.77 0-2.63 2.14-4.77 4.77-4.77 2.63 0 4.77 2.14 4.77 4.77 0 2.63-2.14 4.77-4.77 4.77Zm0-6.5a1.741 1.741 0 0 0 0 3.48 1.741 1.741 0 0 0 0-3.48Z"/><path fill="#4358C1" d="M24.788 87.55c-.48 0-.95-.23-1.25-.65-.48-.69-.31-1.63.38-2.11l3.55-2.47a6.845 6.845 0 0 1 3.94-1.24h21.91c1.33 0 2.63-.46 3.67-1.28l11.49-9.17c.62-.49.45-1.15.38-1.34-.07-.19-.34-.8-1.13-.8-1.94 0-3.8.6-5.38 1.73l-2.68 1.91a1.52 1.52 0 0 1-1.77-2.47l2.67-1.91c2.1-1.5 4.57-2.29 7.14-2.29 1.83 0 3.4 1.11 4 2.84.6 1.72.07 3.57-1.36 4.71l-11.49 9.17a8.92 8.92 0 0 1-5.56 1.95h-21.91c-.79 0-1.55.24-2.21.69l-3.55 2.47c-.26.18-.57.27-.87.27l.03-.01Z"/><path fill="#4358C1" d="M48.199 76.32h-15.59a1.52 1.52 0 1 1 0-3.04h15.59c1.32 0 2.4-1.08 2.4-2.4 0-1.32-1.08-2.4-2.4-2.4h-19.6c-1.15 0-2.27.33-3.24.95l-5.15 3.31a1.52 1.52 0 0 1-1.64-2.56l5.15-3.31a8.997 8.997 0 0 1 4.88-1.43h19.6c3 0 5.44 2.44 5.44 5.44 0 3-2.44 5.44-5.44 5.44ZM17.938 97.31c-.48 0-.95-.23-1.25-.65l-13.4-19.25c-.23-.33-.32-.74-.25-1.13.07-.4.3-.75.63-.98l8.54-5.94c.33-.23.74-.32 1.13-.25.4.07.75.3.98.63l13.4 19.25c.48.69.31 1.63-.38 2.11l-8.54 5.94c-.26.18-.57.27-.87.27h.01ZM6.648 76.92l11.66 16.76 6.05-4.21-11.66-16.76-6.05 4.21Z"/></g><defs><clipPath id="a"><path fill="#fff" d="M.288.58h88v96.73h-88z"/></clipPath></defs></svg>