<svg xmlns="http://www.w3.org/2000/svg" width="52" height="74" fill="none"><g clip-path="url(#a)"><path fill="#4358C1" d="M44.988 73.337H7.77a3.168 3.168 0 0 1-3.166-3.167V16.231a1.283 1.283 0 1 1 2.567 0v53.94c0 .337.27.607.608.607h37.217c.338 0 .608-.27.608-.608V16.231a1.283 1.283 0 1 1 2.568 0v53.94a3.168 3.168 0 0 1-3.167 3.166h-.017Z"/><path fill="#4358C1" d="M41.854 65.922h-28.19c-.709 0-1.283-.574-1.283-1.284V23.646c0-.71.574-1.284 1.284-1.284h28.19a1.283 1.283 0 1 1 0 2.568H14.94v38.433h26.914a1.283 1.283 0 1 1 0 2.568v-.009Z"/><path fill="#DB790F" d="M49.641 12.389H3.125A2.25 2.25 0 0 1 .88 10.142V2.72A2.245 2.245 0 0 1 3.125.473h46.516a2.25 2.25 0 0 1 2.246 2.246v7.432a2.25 2.25 0 0 1-2.246 2.246v-.008ZM3.446 9.829H49.32V3.04H3.446v6.79Z"/><path fill="#DB790F" d="M9.113 7.71c-.71 0-1.284-.574-1.284-1.284v-4.67a1.283 1.283 0 1 1 2.567 0v4.679c0 .71-.574 1.284-1.283 1.284V7.71ZM16.021 7.71c-.71 0-1.284-.574-1.284-1.284v-4.67a1.283 1.283 0 1 1 2.568 0v4.679c0 .71-.575 1.284-1.284 1.284V7.71ZM22.93 7.71c-.71 0-1.285-.574-1.285-1.284v-4.67a1.283 1.283 0 1 1 2.568 0v4.679c0 .71-.574 1.284-1.284 1.284V7.71ZM29.837 7.71c-.709 0-1.283-.574-1.283-1.284v-4.67a1.283 1.283 0 1 1 2.567 0v4.679c0 .71-.574 1.284-1.284 1.284V7.71ZM36.745 7.71c-.71 0-1.284-.574-1.284-1.284v-4.67a1.283 1.283 0 1 1 2.567 0v4.679c0 .71-.574 1.284-1.283 1.284V7.71ZM43.654 7.71c-.71 0-1.284-.574-1.284-1.284v-4.67a1.283 1.283 0 1 1 2.567 0v4.679c0 .71-.574 1.284-1.283 1.284V7.71Z"/></g><defs><clipPath id="a"><path fill="#fff" d="M.879.473h51v72.864h-51z"/></clipPath></defs></svg>