<svg xmlns="http://www.w3.org/2000/svg" width="89" height="88" fill="none"><g clip-path="url(#a)"><path fill="#4358C1" d="M18.638 46.962c-3.83 0-7.44-1.49-10.15-4.2s-4.2-6.31-4.2-10.15c0-3.84 1.49-7.44 4.2-10.15l17.97-17.96c5.59-5.59 14.7-5.59 20.29 0s5.59 14.7 0 20.29l-17.97 17.97c-2.71 2.71-6.31 4.2-10.15 4.2h.01Zm17.97-43.63c-2.9 0-5.79 1.1-8 3.31l-17.97 17.97a11.232 11.232 0 0 0-3.31 8c0 3.02 1.18 5.86 3.31 8 2.14 2.14 4.98 3.31 8 3.31 3.02 0 5.86-1.18 8-3.31l17.97-17.97c4.41-4.41 4.41-11.59 0-16-2.21-2.2-5.1-3.31-8-3.31Z"/><path fill="#4358C1" d="M31.228 28.751c-.39 0-.78-.15-1.07-.44l-12.68-12.68c-.59-.59-.59-1.55 0-2.15.59-.59 1.55-.59 2.15 0l12.68 12.68c.59.59.59 1.55 0 2.15-.3.3-.68.44-1.07.44h-.01Z"/><path fill="#DB790F" d="M45.388 87.942h-25.41c-7.91 0-14.35-6.44-14.35-14.35 0-7.91 6.44-14.35 14.35-14.35h15.61a1.52 1.52 0 1 1 0 3.04h-15.61c-6.24 0-11.31 5.08-11.31 11.31s5.08 11.31 11.31 11.31h25.41c3.46 0 6.69-1.55 8.85-4.26.52-.65 1.48-.76 2.13-.24.65.52.76 1.48.24 2.13-2.74 3.43-6.83 5.4-11.22 5.4v.01Z"/><path fill="#DB790F" d="M32.688 80.211c-.84 0-1.52-.68-1.52-1.52v-17.94a1.52 1.52 0 1 1 3.04 0v17.94c0 .84-.68 1.52-1.52 1.52ZM70.818 82.541c-3.83 0-7.44-1.49-10.15-4.2l-17.97-17.97c-2.71-2.71-4.2-6.31-4.2-10.15 0-3.84 1.49-7.44 4.2-10.15s6.31-4.2 10.15-4.2c3.84 0 7.44 1.49 10.15 4.2l17.97 17.97c2.71 2.71 4.2 6.31 4.2 10.15 0 3.84-1.49 7.44-4.2 10.15s-6.31 4.2-10.15 4.2Zm-17.97-43.63c-3.02 0-5.86 1.18-8 3.31a11.232 11.232 0 0 0-3.31 8c0 3.02 1.18 5.86 3.31 8l17.97 17.97c2.14 2.14 4.98 3.31 8 3.31 3.02 0 5.86-1.18 8-3.31 2.14-2.14 3.31-4.98 3.31-8 0-3.02-1.18-5.86-3.31-8l-17.97-17.97a11.232 11.232 0 0 0-8-3.31Z"/><path fill="#DB790F" d="M58.228 64.341c-.39 0-.78-.15-1.07-.44-.59-.59-.59-1.55 0-2.15l12.68-12.68c.59-.59 1.55-.59 2.15 0 .59.59.59 1.55 0 2.15l-12.68 12.68c-.3.3-.68.44-1.07.44h-.01Z"/></g><defs><clipPath id="a"><path fill="#fff" d="M.288.301h88v87.64h-88z"/></clipPath></defs></svg>