<svg xmlns="http://www.w3.org/2000/svg" width="87" height="96" fill="none"><path fill="#DB790F" d="M52.4 58.705c-.26 0-.52-.07-.76-.2-.61-.35-.9-1.08-.7-1.75l6.91-23.15H46.62c-.6 0-1.15-.36-1.39-.91s-.13-1.19.27-1.64l27.36-29.74a1.51 1.51 0 0 1 1.85-.3c.61.34.91 1.05.73 1.73l-5.74 20.87h12.89c.61 0 1.15.36 1.39.92s.13 1.2-.29 1.64l-30.2 32.05c-.29.31-.7.48-1.11.48h.02Zm-2.32-28.14h9.81c.48 0 .93.23 1.22.61.29.38.37.88.24 1.34l-5.66 18.97 23.39-24.83H67.71a1.525 1.525 0 0 1-1.47-1.92l4.61-16.75-20.78 22.58h.01Z"/><path fill="#4358C1" d="M20.13 91.085c-4.05 0-6.88-.96-8.6-2.92-2.67-3.04-1.67-7.48-1.14-9.86.77-3.44-2.52-6.16-2.56-6.19a1.53 1.53 0 0 1-.53-1.5c.01-.06 1.25-6.34-1.84-7.77-2.34-1.08-3.82-2.43-4.4-4.02-.39-1.07-.14-2.27.65-3.15 6.5-7.19 8.86-11.82 8.47-12.8-3.76-3.14-2.35-9.23-2.29-9.49 5.83-31.98 41.09-28.44 42.8-28.24.4.03 2.96.22 6.56 1.12.81.21 1.31 1.03 1.1 1.84-.2.81-1.03 1.3-1.84 1.1-3.53-.89-6-1.04-6.03-1.04-.04 0-.08 0-.11-.01-.09-.01-8.73-1.07-17.9 1.65-12.06 3.57-19.33 11.72-21.61 24.2-.03.12-1.05 4.61 1.31 6.6.44.37.97 1.04 1.05 2.17.26 3.79-5.69 10.99-9.26 14.94-.04.04-.05.09-.05.1.13.34.66 1.29 2.81 2.28 4.39 2.03 4.01 8.01 3.69 10.29 1.29 1.3 3.86 4.48 2.94 8.59-.58 2.57-1.07 5.46.46 7.2 1.37 1.56 4.44 2.17 8.89 1.76.13 0 10.37-.78 20.49-4.95.77-.32 1.66.05 1.98.82.32.77-.05 1.66-.82 1.98-10.59 4.37-20.97 5.14-21.41 5.17-1 .09-1.94.14-2.82.14l.01-.01ZM75.62 19.835c-.4 0-.81-.16-1.11-.48a32.139 32.139 0 0 0-4.3-3.82c-.67-.5-.82-1.45-.32-2.12.5-.67 1.45-.81 2.12-.32 1.71 1.26 3.29 2.67 4.71 4.18.57.61.54 1.57-.07 2.15-.29.27-.67.41-1.04.41h.01ZM72.62 95.755h-.03c-.84-.02-1.5-.71-1.49-1.55.22-11.91 3.5-18.57 6.66-25.01 3.73-7.6 7.26-14.78 5.32-30.51-.17-1.39-.41-2.75-.7-4.05-.18-.82.33-1.63 1.15-1.81.82-.18 1.63.33 1.81 1.15.31 1.4.56 2.86.75 4.34 2.06 16.63-1.84 24.56-5.6 32.22-3.02 6.15-6.14 12.5-6.35 23.73a1.52 1.52 0 0 1-1.52 1.49Z"/><path fill="#4358C1" d="M32.22 95.754c-.76 0-1.42-.57-1.51-1.34l-.66-5.74c-.1-.83.5-1.59 1.33-1.68.82-.09 1.59.5 1.68 1.33l.66 5.74c.1.83-.5 1.59-1.33 1.68-.06 0-.12.01-.18.01h.01Z"/></svg>