<svg xmlns="http://www.w3.org/2000/svg" width="89" height="87" fill="none"><path stroke="#DB790F" stroke-linecap="round" stroke-width="3" d="M52.924 26.42c2.129 0 4.17-.826 5.676-2.297a7.751 7.751 0 0 0 2.351-5.545c0-2.08-.846-4.074-2.351-5.545a8.124 8.124 0 0 0-5.676-2.296c-2.129 0-4.17.826-5.676 2.296a7.75 7.75 0 0 0-2.35 5.545 7.75 7.75 0 0 0 2.35 5.545 8.124 8.124 0 0 0 5.676 2.297Zm-16.125 7.462c-2.225.54-3.743 1.352-4.968 2.36-1.837 1.512-3.321 3.694-5.326 7.123A3.557 3.557 0 0 1 24.345 45a3.642 3.642 0 0 1-2.708-.337 3.498 3.498 0 0 1-1.672-2.11 3.415 3.415 0 0 1 .345-2.646c1.996-3.41 4.013-6.6 6.926-8.995 3.04-2.503 6.76-3.918 11.778-4.463 2.098-.227 4.406-.181 6.57.762 2.27.991 3.93 2.767 5.06 5.14 1.524 3.195 2.656 5.096 3.563 6.199.437.528.742.774.915.883.137.087.196.094.217.098.155.017.66 0 2.137-.64a70.573 70.573 0 0 0 2.207-1.023l.205-.097a96.898 96.898 0 0 1 3.182-1.464 3.646 3.646 0 0 1 2.722-.059c.88.333 1.589.992 1.972 1.834.383.842.41 1.799.073 2.66a3.52 3.52 0 0 1-1.868 1.934c-.992.435-1.975.888-2.949 1.358l-.234.111c-.822.392-1.65.788-2.425 1.123-1.606.693-3.657 1.446-5.882 1.183-2.347-.279-4.156-1.574-5.645-3.311l-4.875 9.189 6.742 8.57c.402.512.65 1.122.72 1.764l1.483 13.934c.057.459.02.924-.11 1.37-.13.444-.348.859-.643 1.22a3.548 3.548 0 0 1-1.077.884 3.648 3.648 0 0 1-2.742.279 3.596 3.596 0 0 1-1.24-.648 3.504 3.504 0 0 1-.887-1.066 3.425 3.425 0 0 1-.396-1.318l-1.381-12.953-4.096-5.207-.185-.235-7.567-9.62a3.411 3.411 0 0 1-.503-3.37l4.722-12.05Z"/><path stroke="#DB790F" stroke-linecap="round" stroke-width="3" d="m31.398 54.314-2.626 6.901-10.346-.801a3.646 3.646 0 0 0-1.395.144c-.451.138-.87.362-1.231.659a3.5 3.5 0 0 0-.875 1.071 3.427 3.427 0 0 0-.22 2.68c.148.439.383.844.691 1.194.309.35.686.635 1.108.84.423.207.884.329 1.355.36l13.036 1.01a3.634 3.634 0 0 0 2.2-.535 3.502 3.502 0 0 0 1.426-1.723l2.007-5.277"/><path stroke="#4358C1" stroke-linecap="round" stroke-width="3" d="M8.922 79.522h29.109"/></svg>