<svg xmlns="http://www.w3.org/2000/svg" width="87" height="92" fill="none"><path fill="#DB790F" d="M72.61 91.585h-.03c-.84-.02-1.5-.71-1.49-1.55.22-11.91 3.5-18.57 6.66-25.01 3.73-7.6 7.26-14.78 5.32-30.51-3.53-28.57-31.41-30.45-32.59-30.52-.04 0-.07 0-.11-.01-.09-.01-8.73-1.07-17.9 1.65-12.06 3.58-19.33 11.72-21.61 24.2-.03.12-1.05 4.61 1.31 6.6.44.37.97 1.04 1.05 2.17.26 3.79-5.69 10.99-9.26 14.94-.04.04-.05.09-.05.1.13.34.66 1.28 2.81 2.28 4.39 2.03 4.01 8.01 3.69 10.29 1.29 1.3 3.86 4.48 2.94 8.59-.58 2.57-1.07 5.46.46 7.2 1.37 1.56 4.45 2.17 8.89 1.76.13 0 10.37-.78 20.49-4.95.77-.32 1.66.05 1.98.82.32.77-.05 1.66-.82 1.98-10.59 4.37-20.97 5.14-21.41 5.17-5.58.51-9.32-.4-11.41-2.79-2.67-3.04-1.67-7.48-1.14-9.86.78-3.48-2.52-6.16-2.55-6.19-.45-.36-.66-.94-.54-1.51.01-.06 1.25-6.34-1.84-7.77-2.34-1.08-3.82-2.43-4.4-4.02-.39-1.07-.14-2.27.66-3.15 6.49-7.19 8.86-11.81 8.47-12.8-3.76-3.14-2.35-9.23-2.29-9.49C13.74-2.816 49.1.774 50.71.965c1.54.11 31.62 2.69 35.38 33.17 2.06 16.63-1.84 24.56-5.6 32.22-3.02 6.15-6.14 12.5-6.35 23.73a1.52 1.52 0 0 1-1.52 1.49l-.01.01Z"/><path fill="#DB790F" d="M32.21 91.585c-.76 0-1.42-.57-1.51-1.34l-.66-5.74a1.516 1.516 0 0 1 3.01-.35l.66 5.74c.1.83-.5 1.59-1.33 1.68-.06 0-.12.01-.18.01h.01Z"/><path fill="#4358C1" d="M40.02 53.194c-.28 0-.55-.07-.8-.23-4.53-2.84-7.24-7.73-7.24-13.07 0-8.5 6.92-15.42 15.42-15.42s15.42 6.92 15.42 15.42c0 5.34-2.7 10.23-7.24 13.07-.71.45-1.65.23-2.09-.48a1.51 1.51 0 0 1 .48-2.09c3.64-2.28 5.81-6.21 5.81-10.5 0-6.83-5.56-12.39-12.39-12.39-6.83 0-12.39 5.56-12.39 12.39 0 4.29 2.17 8.22 5.81 10.5a1.515 1.515 0 0 1-.81 2.8h.02ZM47.4 67.254c-.79 0-1.59-.11-2.36-.33a9.063 9.063 0 0 1-6.53-8.68v-1.04c0-.84.68-1.52 1.52-1.52h14.76c.84 0 1.52.68 1.52 1.52v1.04c0 4-2.69 7.57-6.53 8.68-.77.22-1.57.33-2.36.33h-.02Zm-5.84-8.53c.2 2.46 1.92 4.59 4.32 5.28 1 .29 2.05.29 3.05 0 2.4-.69 4.12-2.82 4.32-5.28H41.56ZM47.4 21.744c-.84 0-1.52-.68-1.52-1.52v-4.28a1.52 1.52 0 1 1 3.04 0v4.28c0 .84-.68 1.52-1.52 1.52ZM37.64 24.364c-.53 0-1.03-.27-1.32-.76l-2.14-3.71a1.51 1.51 0 0 1 .56-2.07 1.51 1.51 0 0 1 2.07.56l2.14 3.71c.42.73.17 1.65-.56 2.07-.24.14-.5.2-.76.2h.01ZM30.48 31.515c-.26 0-.52-.07-.76-.2l-3.71-2.14c-.73-.42-.97-1.35-.56-2.07.41-.72 1.35-.97 2.07-.56l3.71 2.14c.73.42.97 1.35.56 2.07-.28.49-.79.76-1.32.76h.01ZM27.87 41.285h-4.28a1.52 1.52 0 1 1 0-3.04h4.28a1.52 1.52 0 1 1 0 3.04ZM26.78 53.194c-.53 0-1.03-.27-1.32-.76a1.51 1.51 0 0 1 .56-2.07l3.71-2.14a1.51 1.51 0 0 1 2.07.56c.42.73.17 1.65-.56 2.07l-3.71 2.14c-.24.14-.5.2-.76.2h.01ZM68.03 53.194c-.26 0-.52-.07-.76-.2l-3.71-2.14c-.73-.42-.97-1.35-.56-2.07.42-.73 1.35-.97 2.07-.56l3.71 2.14c.73.42.97 1.35.56 2.07-.28.49-.79.76-1.32.76h.01ZM71.23 41.285h-4.28a1.52 1.52 0 1 1 0-3.04h4.28a1.52 1.52 0 1 1 0 3.04ZM64.33 31.515c-.53 0-1.03-.27-1.32-.76a1.51 1.51 0 0 1 .56-2.07l3.71-2.14a1.51 1.51 0 0 1 2.07.56c.42.73.17 1.65-.56 2.07l-3.71 2.14c-.24.14-.5.2-.76.2h.01ZM57.17 24.364c-.26 0-.52-.07-.76-.2-.73-.42-.97-1.35-.56-2.07l2.14-3.71c.42-.73 1.35-.97 2.07-.56.73.42.97 1.35.56 2.07l-2.14 3.71c-.28.49-.79.76-1.32.76h.01Z"/><path fill="#4358C1" d="M47.4 57.974c-.84 0-1.52-.68-1.52-1.51l-.03-10.65-4.05-5.1c-.58-.73-.69-1.71-.28-2.55.41-.84 1.24-1.37 2.18-1.37h7.36c.93 0 1.77.52 2.17 1.36.41.84.3 1.82-.28 2.55l-1.74 2.21c-.52.66-1.47.77-2.13.25-.66-.52-.77-1.47-.25-2.13l.95-1.21h-4.8l3.58 4.51c.21.27.33.6.33.94l.03 11.18c0 .84-.67 1.52-1.51 1.52h-.01Z"/></svg>