<svg width="82" height="80" viewBox="0 0 82 80" fill="none" xmlns="http://www.w3.org/2000/svg">
<path opacity="0.2" fill-rule="evenodd" clip-rule="evenodd" d="M1.28339 49.3214C3.03251 57.1114 7.05236 64.2077 12.8346 69.7131L42.0696 97.5487L69.9052 68.3137C75.4107 62.5315 79.0779 55.2467 80.4431 47.3803C81.8083 39.5139 80.8102 31.4194 77.575 24.1203C74.3398 16.8212 69.0129 10.6453 62.2677 6.37372C55.5226 2.10212 47.6622 -0.073379 39.6807 0.122334C31.6991 0.318046 23.9548 2.87618 17.4271 7.47323C10.8995 12.0703 5.88157 18.4998 3.00801 25.9487C0.134441 33.3976 -0.465729 41.5313 1.28339 49.3214ZM40.767 57.7411C50.6756 57.7411 58.7081 49.7086 58.7081 39.8C58.7081 29.8914 50.6756 21.8589 40.767 21.8589C30.8584 21.8589 22.8259 29.8914 22.8259 39.8C22.8259 49.7086 30.8584 57.7411 40.767 57.7411Z" fill="white"/>
</svg>
