<svg width="94" height="113" viewBox="0 0 94 113" fill="none" xmlns="http://www.w3.org/2000/svg">
<path fill-rule="evenodd" clip-rule="evenodd" d="M1.66835 56.7366C3.68258 65.7073 8.31169 73.8792 14.9703 80.219L48.6363 112.274L80.6907 78.6075C87.0306 71.949 91.2537 63.56 92.8258 54.5014C94.3979 45.4428 93.2486 36.1214 89.523 27.716C85.7975 19.3106 79.6631 12.1987 71.8957 7.2797C64.1282 2.36069 55.0765 -0.144538 45.8853 0.0808377C36.694 0.306213 27.776 3.25206 20.2589 8.54587C12.7419 13.8397 6.96345 21.2437 3.65436 29.8215C0.345263 38.3994 -0.345872 47.766 1.66835 56.7366ZM47.1352 66.4322C58.5456 66.4322 67.7955 57.1823 67.7955 45.7719C67.7955 34.3615 58.5456 25.1116 47.1352 25.1116C35.7248 25.1116 26.4749 34.3615 26.4749 45.7719C26.4749 57.1823 35.7248 66.4322 47.1352 66.4322Z" fill="white"/>
</svg>
