<svg width="60" height="72" viewBox="0 0 60 72" fill="none" xmlns="http://www.w3.org/2000/svg">
<path opacity="0.5" fill-rule="evenodd" clip-rule="evenodd" d="M1.18733 36.5925C2.4565 42.245 5.37331 47.3941 9.56892 51.3889L30.7819 71.5864L50.9795 50.3734C54.9743 46.1779 57.6352 40.892 58.6258 35.1841C59.6164 29.4763 58.8922 23.6028 56.5447 18.3066C54.1973 13.0103 50.332 8.5291 45.4377 5.42962C40.5434 2.33013 34.8399 0.751587 29.0485 0.893598C23.2571 1.03561 17.6378 2.89179 12.9013 6.22743C8.16478 9.56307 4.52378 14.2283 2.43871 19.6333C0.353648 25.0382 -0.081837 30.9401 1.18733 36.5925ZM31.3518 42.505C38.3409 40.8184 42.6393 33.7853 40.9527 26.7963C39.2661 19.8072 32.2331 15.5087 25.244 17.1953C18.2549 18.8819 13.9564 25.915 15.6431 32.904C17.3297 39.8931 24.3627 44.1916 31.3518 42.505Z" fill="white"/>
</svg>
