<svg xmlns="http://www.w3.org/2000/svg" width="179" height="122" fill="none"><path fill="#fff" d="M16.348 28.126c0 1.21-.154 2.313-.462 3.309-.301.988-.756 1.84-1.364 2.556a6.075 6.075 0 0 1-2.289 1.644c-.916.387-1.99.58-3.222.58-1.254 0-2.342-.194-3.266-.58a6.024 6.024 0 0 1-2.288-1.654c-.602-.717-1.053-1.573-1.353-2.568-.301-.995-.452-2.098-.452-3.308 0-1.619.265-3.03.795-4.233.537-1.21 1.35-2.148 2.439-2.814 1.095-.674 2.478-1.01 4.146-1.01 1.633 0 2.99.333 4.072.999 1.08.666 1.89 1.604 2.427 2.814.545 1.203.817 2.625.817 4.265Zm-11.989 0c0 1.21.165 2.26.495 3.147.329.881.834 1.562 1.514 2.042.688.472 1.569.708 2.643.708 1.081 0 1.962-.236 2.642-.709.68-.48 1.182-1.16 1.504-2.04.322-.889.484-1.938.484-3.148 0-1.84-.37-3.28-1.107-4.318-.73-1.046-1.898-1.569-3.502-1.569-1.074 0-1.958.237-2.653.71-.688.472-1.196 1.149-1.525 2.03-.33.873-.495 1.922-.495 3.147ZM83.553 22h-3.17l-7.69-12.536h-.097c.028.422.053.87.075 1.343.028.472.05.96.064 1.46.022.502.04 1.01.054 1.526V22h-2.342V6.295h3.148l7.68 12.45h.076l-.054-1.257-.065-1.46c-.014-.51-.025-1-.032-1.472V6.295h2.353V22ZM103.553 84h-3.169l-7.692-12.536h-.096c.028.422.053.87.075 1.343.028.472.05.96.064 1.46.022.502.04 1.01.054 1.526V84h-2.342V68.295h3.148l7.68 12.45h.076l-.054-1.257-.065-1.46c-.014-.51-.025-1-.032-1.472v-8.261h2.353V84ZM152.281 36h-3.169l-7.691-12.536h-.097c.029.422.054.87.075 1.343.029.472.051.96.065 1.46.021.502.039 1.01.054 1.526V36h-2.342V20.295h3.147l7.681 12.45h.075c-.014-.365-.032-.784-.054-1.257l-.064-1.46c-.014-.51-.025-1-.032-1.472v-8.261h2.352V36Zm16.511 0h-2.567v-7.09h-7.241V36h-2.578V20.295h2.578v6.424h7.241v-6.424h2.567V36ZM178.235 38h-6.457v-1.154l2.472-2.505c.478-.487.872-.906 1.18-1.259.309-.356.537-.693.685-1.01a2.37 2.37 0 0 0 .229-1.038c0-.46-.133-.808-.398-1.043-.266-.24-.616-.359-1.05-.359-.413 0-.796.083-1.148.248-.348.16-.709.391-1.083.691l-.841-1.01a7.04 7.04 0 0 1 .848-.62 4.13 4.13 0 0 1 1.017-.444c.374-.113.8-.17 1.278-.17.605 0 1.127.11 1.566.327.439.213.776.51 1.011.893.239.383.358.829.358 1.337 0 .514-.102.988-.306 1.422a5.488 5.488 0 0 1-.874 1.292c-.378.421-.828.88-1.35 1.376l-1.65 1.61v.072h4.513V38ZM149.87 111.643c0 .431-.087.805-.261 1.122a2.216 2.216 0 0 1-.718.783c-.3.2-.647.343-1.043.43v.046c.761.095 1.335.334 1.722.717.391.383.587.889.587 1.52 0 .552-.133 1.045-.398 1.48-.265.431-.672.77-1.22 1.018-.548.248-1.252.371-2.113.371a7.93 7.93 0 0 1-1.441-.123 5.386 5.386 0 0 1-1.253-.398v-1.363c.405.2.835.354 1.292.463.456.108.889.163 1.298.163.795 0 1.363-.148 1.702-.444.339-.3.509-.713.509-1.239 0-.339-.089-.617-.268-.835-.174-.217-.445-.38-.815-.489-.365-.109-.837-.163-1.415-.163h-.842v-1.233h.848c.552 0 .996-.065 1.331-.195.335-.135.576-.32.724-.555.152-.235.228-.508.228-.822 0-.408-.133-.726-.398-.952-.265-.23-.659-.345-1.18-.345-.322 0-.616.037-.881.11a3.991 3.991 0 0 0-.724.281 6.906 6.906 0 0 0-.632.365l-.737-1.063a5.14 5.14 0 0 1 1.291-.685c.5-.187 1.083-.28 1.748-.28.978 0 1.733.211 2.263.632.53.418.796.979.796 1.683ZM121.012 102.261c-.752 0-1.425.136-2.02.408a4.054 4.054 0 0 0-1.493 1.182c-.408.508-.72 1.128-.935 1.858-.214.723-.322 1.54-.322 2.449 0 1.218.172 2.267.516 3.148.344.873.866 1.547 1.568 2.019.702.466 1.59.698 2.664.698.666 0 1.314-.064 1.945-.193.63-.129 1.281-.304 1.955-.526v2.191c-.638.251-1.282.433-1.934.548-.652.115-1.404.172-2.256.172-1.604 0-2.936-.333-3.996-.999-1.053-.666-1.84-1.604-2.363-2.815-.516-1.21-.774-2.628-.774-4.254 0-1.188.165-2.277.495-3.265.329-.988.809-1.841 1.439-2.557a6.239 6.239 0 0 1 2.331-1.665c.931-.394 1.994-.591 3.19-.591.788 0 1.562.09 2.321.269a9.47 9.47 0 0 1 2.127.741l-.903 2.127a13.101 13.101 0 0 0-1.708-.666 6.146 6.146 0 0 0-1.847-.279ZM140.648 116h-2.567v-7.09h-7.24V116h-2.578v-15.705h2.578v6.424h7.24v-6.424h2.567V116Z"/><path stroke="#fff" stroke-linecap="round" stroke-width="3.124" d="M66.5 26.5 49.718 38.747a3 3 0 0 0-1.105 3.289l9.744 32.33a3 3 0 0 0 2.872 2.134H85m4.5-50 17.704 12.257a3 3 0 0 1 1.164 3.334L102.5 61.5M84 32l17.333 12M29.976 29.012l21.036 7.012M130.024 33.012l-21.036 7.012M26.976 36.012l21.036 7.012M108.187 90.312l1.125 1.501"/></svg>