<svg xmlns="http://www.w3.org/2000/svg" width="87" height="87" fill="none"><g clip-path="url(#a)"><path fill="url(#b)" d="M43.5 0a43.495 43.495 0 0 0-30.756 12.74A43.513 43.513 0 0 0 0 43.5a43.513 43.513 0 0 0 12.744 30.76 43.495 43.495 0 0 0 61.512 0A43.513 43.513 0 0 0 87 43.5a43.513 43.513 0 0 0-12.744-30.76A43.495 43.495 0 0 0 43.5 0Z"/><path fill="#fff" d="M19.69 43.042c12.683-5.525 21.139-9.167 25.366-10.927 12.085-5.025 14.593-5.898 16.231-5.927.36-.006 1.163.083 1.686.506.435.357.557.84.618 1.178.055.339.13 1.11.068 1.712-.652 6.879-3.486 23.57-4.927 31.275-.605 3.26-1.808 4.353-2.97 4.46-2.53.232-4.446-1.67-6.893-3.273-3.826-2.51-5.988-4.072-9.706-6.521-4.295-2.83-1.508-4.386.938-6.928.64-.666 11.773-10.79 11.983-11.708.027-.115.055-.543-.204-.769-.251-.226-.625-.148-.897-.087-.387.087-6.498 4.13-18.351 12.127-1.734 1.193-3.304 1.774-4.717 1.743-1.55-.033-4.54-.878-6.763-1.6-2.72-.886-4.887-1.354-4.697-2.858.095-.783 1.176-1.584 3.235-2.403Z"/></g><defs><linearGradient id="b" x1="4350" x2="4350" y1="0" y2="8700" gradientUnits="userSpaceOnUse"><stop stop-color="#2AABEE"/><stop offset="1" stop-color="#229ED9"/></linearGradient><clipPath id="a"><path fill="#fff" d="M0 0h87v87H0z"/></clipPath></defs></svg>