<svg xmlns="http://www.w3.org/2000/svg" width="187" height="17" fill="none"><path fill="#fff" d="M.952 16.168V.987h9.542v15.18h-1.8V2.636H2.752v13.533h-1.8Zm18.068.26c-.781 0-1.482-.116-2.104-.347a4.243 4.243 0 0 1-1.561-1.02 5.084 5.084 0 0 1-.825-1.192c-.245-.492-.44-1.157-.585-1.996-.13-.838-.195-1.937-.195-3.296 0-1.359.065-2.458.195-3.296.144-.839.34-1.504.585-1.996.246-.491.52-.889.825-1.192a4.244 4.244 0 0 1 1.561-1.02c.622-.231 1.323-.347 2.104-.347.78 0 1.474.116 2.082.347.621.232 1.149.571 1.583 1.02.318.303.593.7.824 1.192.246.492.434 1.157.564 1.996.144.838.217 1.937.217 3.296 0 1.36-.073 2.458-.217 3.296-.13.839-.318 1.504-.564 1.996a4.353 4.353 0 0 1-.824 1.192 4.212 4.212 0 0 1-1.583 1.02c-.608.231-1.302.347-2.082.347Zm0-1.692c1.07 0 1.88-.289 2.429-.867.563-.579.874-1.36.932-2.342.043-.637.072-1.172.087-1.605a20.89 20.89 0 0 0 0-2.69 44.092 44.092 0 0 0-.087-1.604c-.058-.984-.369-1.764-.932-2.343-.55-.578-1.36-.867-2.43-.867s-1.886.29-2.45.867c-.55.579-.853 1.36-.91 2.343-.044.621-.08 1.156-.11 1.604a40.55 40.55 0 0 0 0 2.69l.11 1.604c.057.984.36 1.764.91 2.343.564.578 1.38.867 2.45.867Zm8.532 1.431V.988h1.518l3.6 6.81c.073.13.152.194.239.194.101 0 .18-.065.239-.195l3.6-6.81h1.518v15.182H36.53v-9.89l.217-1.366c.014-.101-.015-.166-.087-.195-.058-.03-.123.014-.195.13L33.45 10.42h-1.084l-3.015-5.573c-.058-.116-.122-.16-.195-.13-.072.029-.101.094-.087.195l.217 1.366v9.89h-1.735Zm19.233.26c-.78 0-1.482-.115-2.104-.346a4.243 4.243 0 0 1-1.561-1.02 5.09 5.09 0 0 1-.824-1.192c-.246-.492-.441-1.157-.586-1.996-.13-.838-.195-1.937-.195-3.296 0-1.359.065-2.458.195-3.296.145-.839.34-1.504.586-1.996.246-.491.52-.889.824-1.192a4.244 4.244 0 0 1 1.561-1.02c.622-.231 1.323-.347 2.104-.347.78 0 1.475.116 2.082.347.622.232 1.15.571 1.583 1.02.318.303.593.7.824 1.192.246.492.434 1.157.564 1.996.145.838.217 1.937.217 3.296 0 1.36-.072 2.458-.217 3.296-.13.839-.318 1.504-.564 1.996a4.351 4.351 0 0 1-.824 1.192 4.212 4.212 0 0 1-1.583 1.02c-.607.231-1.301.347-2.082.347Zm0-1.69c1.07 0 1.88-.29 2.429-.868.564-.579.875-1.36.933-2.342a47.57 47.57 0 0 0 .086-1.605 20.89 20.89 0 0 0 0-2.69 43.867 43.867 0 0 0-.086-1.604c-.058-.984-.37-1.764-.933-2.343-.55-.578-1.36-.867-2.429-.867-1.07 0-1.887.29-2.45.867-.55.579-.854 1.36-.912 2.343-.043.621-.079 1.156-.108 1.604a40.274 40.274 0 0 0 0 2.69l.108 1.604c.058.984.362 1.764.911 2.343.564.578 1.381.867 2.451.867Zm8.533 1.43V.988h7.2v1.691h-5.4v13.49h-1.8Zm9.36 0V.988h1.8v10.106l-.238 1.453c-.014.101.015.173.087.217.072.028.137-.008.195-.109L73.05.987h1.583v15.18h-1.8V6.062l.217-1.41c.029-.115 0-.187-.087-.216-.072-.03-.144.021-.217.152l-6.484 11.58h-1.583Zm13.852 0V.988h9.542v15.18h-1.8V2.636H80.33v13.533h-1.8Zm18.067.26c-.78 0-1.482-.115-2.103-.346a4.243 4.243 0 0 1-1.562-1.02 5.087 5.087 0 0 1-.824-1.192c-.246-.492-.44-1.157-.585-1.996-.13-.838-.196-1.937-.196-3.296 0-1.359.066-2.458.196-3.296.144-.839.34-1.504.585-1.996.246-.491.52-.889.824-1.192a4.244 4.244 0 0 1 1.562-1.02c.621-.231 1.323-.347 2.103-.347.781 0 1.475.116 2.082.347.622.232 1.15.571 1.583 1.02.319.303.593.7.825 1.192.245.492.433 1.157.563 1.996.145.838.217 1.937.217 3.296 0 1.36-.072 2.458-.217 3.296-.13.839-.318 1.504-.563 1.996a4.349 4.349 0 0 1-.825 1.192 4.206 4.206 0 0 1-1.583 1.02c-.607.231-1.3.347-2.082.347Zm0-1.69c1.07 0 1.88-.29 2.43-.868.563-.579.874-1.36.932-2.342.043-.637.072-1.172.087-1.605a20.818 20.818 0 0 0 0-2.69 45.848 45.848 0 0 0-.087-1.604c-.058-.984-.369-1.764-.933-2.343-.55-.578-1.359-.867-2.429-.867-1.07 0-1.886.29-2.45.867-.55.579-.853 1.36-.911 2.343-.044.621-.08 1.156-.109 1.604a40.274 40.274 0 0 0 0 2.69l.109 1.604c.058.984.361 1.764.91 2.343.565.578 1.382.867 2.451.867Zm15.153 1.43V9.791c0-.144-.044-.238-.13-.281-.087-.044-.188-.037-.304.021l-1.106.5a4.018 4.018 0 0 1-.803.13c-.347.028-.643.043-.889.043-.694 0-1.366-.13-2.017-.39a3.6 3.6 0 0 1-1.604-1.259c-.42-.592-.629-1.38-.629-2.364V.987h1.8v5.01c0 .91.238 1.568.715 1.973s1.121.607 1.93.607c.637 0 1.222-.058 1.757-.173.535-.13.962-.282 1.28-.456V.987h1.821v15.18h-1.821Zm5.727 0V.988h1.779v6.766h1.626l3.665-6.766h1.952l-4.142 7.46 4.185 7.72h-1.951l-3.709-6.788h-1.626v6.789h-1.779Zm10.368 0 4.273-15.18h2.602l4.316 15.18h-1.843L133.766 3.72l-.173-1.15c-.015-.086-.066-.13-.152-.13-.073 0-.116.044-.13.13l-.196 1.15-3.426 12.449h-1.844Zm2.343-4.055.477-1.605h5.552l.477 1.605h-6.506Zm-.542-9.542V.987h3.057V2.57h-3.057Zm11.784 13.598V.987h1.518l3.601 6.81c.072.13.151.194.238.194.101 0 .181-.065.239-.195l3.6-6.81h1.518v15.182h-1.735v-9.89l.217-1.366c.014-.101-.015-.166-.087-.195-.058-.03-.123.014-.195.13l-3.015 5.573h-1.084l-3.015-5.573c-.057-.116-.122-.16-.195-.13-.072.029-.101.094-.087.195l.217 1.366v9.89h-1.735Zm14.614 0v-2.17h1.843v2.17h-1.843Zm5.739 0V.987h5.205c1.287 0 2.306.39 3.058 1.17.752.767 1.128 1.8 1.128 3.102 0 1.287-.376 2.306-1.128 3.058-.752.737-1.771 1.106-3.058 1.106h-3.47v6.745h-1.735Zm1.735-8.328h3.253c.81 0 1.453-.224 1.93-.673.477-.462.716-1.098.716-1.908 0-.853-.239-1.525-.716-2.017s-1.12-.737-1.93-.737h-3.253V7.84Zm15.24 8.544v-1.648c0-.246-.115-.354-.347-.325l-1.409.108c-1.157-.289-2.053-.81-2.69-1.561-.621-.752-1.012-1.576-1.171-2.473a7.791 7.791 0 0 1-.108-.954 20.253 20.253 0 0 1 0-1.908c.014-.318.051-.636.108-.954.145-.897.535-1.72 1.171-2.473.637-.752 1.533-1.272 2.69-1.561l1.409.108c.232.03.347-.08.347-.325V.77h1.8v1.648c0 .246.116.354.347.325l1.41-.108c1.157.289 2.053.81 2.689 1.561.636.752 1.027 1.576 1.171 2.473.058.318.094.636.109.954a21.699 21.699 0 0 1 0 1.908 7.8 7.8 0 0 1-.109.954c-.144.897-.535 1.721-1.171 2.473-.636.752-1.532 1.272-2.689 1.561l-1.41-.108c-.231-.03-.347.08-.347.325v1.648h-1.8Zm0-3.188V4.001c-.867 0-1.576.13-2.125.39-.549.26-.961.6-1.236 1.02-.275.419-.441.874-.499 1.366-.087.665-.13 1.28-.13 1.843 0 .55.051 1.15.152 1.8.086.478.26.933.52 1.367.275.419.68.759 1.215 1.019.535.26 1.236.39 2.103.39Zm1.8 0c.868 0 1.569-.13 2.104-.39.535-.26.94-.6 1.214-1.02.275-.433.449-.888.521-1.366.101-.65.145-1.25.13-1.8 0-.563-.036-1.178-.108-1.843a2.942 2.942 0 0 0-.477-1.366c-.275-.42-.694-.76-1.258-1.02-.55-.26-1.258-.39-2.126-.39v9.195Z"/></svg>