<svg xmlns="http://www.w3.org/2000/svg" width="216" height="19" fill="none"><path fill="#4358C0" d="M.264 18V.39h11.07V18H9.244V2.302H2.352V18H.264Zm20.959.302c-.906 0-1.72-.134-2.44-.403a4.924 4.924 0 0 1-1.812-1.182 5.906 5.906 0 0 1-.956-1.384c-.285-.57-.511-1.341-.679-2.314-.15-.973-.226-2.247-.226-3.824 0-1.576.075-2.851.226-3.824.168-.973.394-1.744.68-2.314.284-.57.603-1.032.955-1.384A4.923 4.923 0 0 1 18.783.491c.72-.269 1.534-.403 2.44-.403.905 0 1.71.134 2.415.403a4.886 4.886 0 0 1 1.836 1.182c.37.352.688.814.956 1.384.285.57.503 1.341.654 2.314.168.973.252 2.248.252 3.824 0 1.577-.084 2.851-.252 3.824-.15.973-.369 1.744-.654 2.314a5.05 5.05 0 0 1-.956 1.384 4.887 4.887 0 0 1-1.836 1.182c-.705.269-1.51.403-2.415.403Zm0-1.962c1.24 0 2.18-.336 2.817-1.007.655-.67 1.015-1.576 1.082-2.717.05-.737.084-1.358.1-1.861a24.25 24.25 0 0 0 0-3.12c-.016-.52-.05-1.14-.1-1.861-.067-1.14-.427-2.046-1.082-2.717-.637-.671-1.576-1.007-2.817-1.007s-2.189.336-2.843 1.007c-.637.67-.99 1.576-1.056 2.717-.05.72-.093 1.341-.126 1.861a46.77 46.77 0 0 0 0 3.12l.125 1.861c.068 1.14.42 2.046 1.057 2.717.654.671 1.602 1.007 2.843 1.007ZM31.12 18V.39h1.76l4.177 7.9c.084.15.176.226.276.226.118 0 .21-.076.277-.227L41.787.39h1.761V18h-2.012V6.528l.251-1.584c.017-.118-.017-.193-.1-.227-.067-.033-.143.017-.227.151l-3.497 6.465h-1.258L33.21 4.868c-.067-.134-.143-.184-.227-.15-.084.033-.117.108-.1.226l.251 1.584V18h-2.012Zm22.31.302c-.906 0-1.72-.134-2.44-.403a4.924 4.924 0 0 1-1.812-1.182 5.906 5.906 0 0 1-.956-1.384c-.285-.57-.511-1.341-.68-2.314-.15-.973-.226-2.247-.226-3.824 0-1.576.076-2.851.227-3.824.168-.973.394-1.744.68-2.314.284-.57.603-1.032.955-1.384A4.923 4.923 0 0 1 50.99.491c.721-.269 1.535-.403 2.44-.403.906 0 1.711.134 2.416.403a4.886 4.886 0 0 1 1.836 1.182c.37.352.688.814.956 1.384.285.57.503 1.341.654 2.314.168.973.252 2.248.252 3.824 0 1.577-.084 2.851-.252 3.824-.15.973-.369 1.744-.654 2.314a5.052 5.052 0 0 1-.956 1.384 4.887 4.887 0 0 1-1.836 1.182c-.705.269-1.51.403-2.415.403Zm0-1.962c1.24 0 2.18-.336 2.817-1.007.654-.67 1.015-1.576 1.082-2.717.05-.737.084-1.358.1-1.861a24.178 24.178 0 0 0 0-3.12c-.016-.52-.05-1.14-.1-1.861-.067-1.14-.428-2.046-1.082-2.717-.637-.671-1.576-1.007-2.817-1.007s-2.19.336-2.843 1.007c-.638.67-.99 1.576-1.057 2.717-.05.72-.092 1.341-.125 1.861a46.77 46.77 0 0 0 0 3.12l.125 1.861c.067 1.14.42 2.046 1.057 2.717.654.671 1.602 1.007 2.843 1.007ZM63.329 18V.39h8.352v1.962h-6.264V18h-2.089Zm10.858 0V.39h2.088v11.723L76 13.8c-.017.117.016.201.1.251.084.034.16-.008.227-.125L83.898.39h1.836V18h-2.088V6.277l.252-1.635c.033-.135 0-.218-.1-.252-.085-.033-.169.025-.252.176L76.024 18h-1.837Zm16.067 0V.39h11.069V18h-2.088V2.302h-6.893V18h-2.088Zm20.959.302c-.906 0-1.719-.134-2.44-.403a4.929 4.929 0 0 1-1.812-1.182 5.94 5.94 0 0 1-.956-1.384c-.285-.57-.511-1.341-.679-2.314-.151-.973-.226-2.247-.226-3.824 0-1.576.075-2.851.226-3.824.168-.973.394-1.744.679-2.314.286-.57.604-1.032.956-1.384a4.928 4.928 0 0 1 1.812-1.182c.721-.269 1.534-.403 2.44-.403.906 0 1.711.134 2.415.403a4.884 4.884 0 0 1 1.836 1.182c.369.352.688.814.956 1.384.286.57.504 1.341.655 2.314.167.973.251 2.248.251 3.824 0 1.577-.084 2.851-.251 3.824-.151.973-.369 1.744-.655 2.314a5.043 5.043 0 0 1-.956 1.384 4.885 4.885 0 0 1-1.836 1.182c-.704.269-1.509.403-2.415.403Zm0-1.962c1.241 0 2.18-.336 2.818-1.007.654-.67 1.014-1.576 1.081-2.717.051-.737.084-1.358.101-1.861a24.617 24.617 0 0 0 0-3.12c-.017-.52-.05-1.14-.101-1.861-.067-1.14-.427-2.046-1.081-2.717-.638-.671-1.577-1.007-2.818-1.007s-2.189.336-2.843 1.007c-.637.67-.989 1.576-1.056 2.717-.051.72-.093 1.341-.126 1.861a47.722 47.722 0 0 0 0 3.12c.033.503.075 1.123.126 1.861.067 1.14.419 2.046 1.056 2.717.654.671 1.602 1.007 2.843 1.007ZM128.79 18v-7.396c0-.168-.051-.277-.151-.327-.101-.05-.218-.042-.353.025l-1.283.579c-.218.067-.528.117-.93.15-.403.034-.747.05-1.032.05-.805 0-1.585-.15-2.339-.452a4.173 4.173 0 0 1-1.862-1.46c-.486-.687-.73-1.6-.73-2.741V.39h2.088v5.811c0 1.057.277 1.82.831 2.29.553.47 1.299.704 2.239.704.738 0 1.417-.067 2.037-.201.621-.151 1.116-.327 1.485-.528V.39h2.113V18h-2.113Zm6.644 0V.39h2.062v7.85h1.887l4.252-7.85h2.264l-4.805 8.654L145.949 18h-2.264l-4.302-7.874h-1.887V18h-2.062Zm12.027 0L152.417.39h3.019L160.442 18h-2.139l-3.974-14.44-.202-1.333c-.016-.101-.075-.151-.176-.151-.084 0-.134.05-.151.15l-.226 1.334L149.599 18h-2.138Zm2.717-4.704.553-1.862h6.44l.554 1.862h-7.547Zm-.629-11.07V.39h3.547v1.837h-3.547ZM163.219 18V.39h1.761l4.176 7.9c.084.15.176.226.277.226.117 0 .21-.076.277-.227L173.886.39h1.761V18h-2.013V6.528l.252-1.584c.017-.118-.017-.193-.101-.227-.067-.033-.142.017-.226.151l-3.497 6.465h-1.258l-3.497-6.465c-.067-.134-.142-.184-.226-.15-.084.033-.118.108-.101.226l.252 1.584V18h-2.013Zm16.952 0v-2.516h2.138V18h-2.138Zm6.657 0V.39h6.038c1.493 0 2.675.453 3.547 1.359.872.888 1.308 2.088 1.308 3.597 0 1.493-.436 2.675-1.308 3.547-.872.856-2.054 1.283-3.547 1.283h-4.025V18h-2.013Zm2.013-9.66h3.774c.939 0 1.685-.26 2.239-.78.553-.537.83-1.275.83-2.214 0-.99-.277-1.77-.83-2.34-.554-.57-1.3-.855-2.239-.855h-3.774V8.34Zm17.679 9.912V16.34c0-.285-.135-.411-.403-.378l-1.635.126c-1.342-.335-2.382-.94-3.12-1.811-.721-.872-1.174-1.828-1.358-2.868a9.02 9.02 0 0 1-.126-1.107 24.048 24.048 0 0 1 0-2.214c.017-.369.059-.738.126-1.107.168-1.04.621-1.996 1.358-2.868.738-.872 1.778-1.476 3.12-1.81l1.635.125c.268.033.403-.092.403-.378V.14h2.088V2.05c0 .286.134.411.402.378l1.635-.126c1.342.335 2.382.94 3.12 1.811.738.872 1.191 1.828 1.358 2.868.067.37.109.738.126 1.107a24.046 24.046 0 0 1 0 2.214 9.02 9.02 0 0 1-.126 1.107c-.167 1.04-.62 1.996-1.358 2.868-.738.872-1.778 1.476-3.12 1.811l-1.635-.126c-.268-.033-.402.093-.402.378v1.912h-2.088Zm0-3.698V3.886c-1.007 0-1.828.15-2.466.453-.637.302-1.115.696-1.434 1.182a3.636 3.636 0 0 0-.578 1.585 16.55 16.55 0 0 0-.151 2.138c0 .638.058 1.334.176 2.088.101.554.302 1.082.604 1.585.318.487.788.88 1.408 1.183.621.302 1.434.452 2.441.452Zm2.088 0c1.006 0 1.819-.151 2.44-.453.62-.302 1.09-.696 1.409-1.183.318-.503.52-1.031.603-1.585.118-.754.168-1.45.151-2.088 0-.654-.042-1.366-.125-2.138a3.4 3.4 0 0 0-.554-1.585c-.318-.486-.805-.88-1.459-1.182-.637-.302-1.459-.453-2.465-.453v10.666Z"/></svg>