<svg xmlns="http://www.w3.org/2000/svg" width="59" height="77" fill="none"><g clip-path="url(#a)"><path fill="#4358C1" d="M51.213 76.445H7.24a1.284 1.284 0 1 1 0-2.57h43.98a1.284 1.284 0 1 1 0 2.57h-.008Z"/><path fill="#DB790F" d="M15.92 55.376H1.612a1.284 1.284 0 1 1 0-2.57H15.92a1.284 1.284 0 1 1 0 2.57Z"/><g fill="#4358C1"><path d="M36.11 27.986c-.354 0-.7-.144-.954-.431l-7.868-8.806a1.245 1.245 0 0 1-.322-.93c.017-.338.17-.659.423-.887l15.694-14.02a1.283 1.283 0 0 1 1.808.1l7.868 8.807c.228.253.347.583.322.93-.017.337-.17.659-.423.887L36.956 27.665c-.245.22-.55.33-.854.33l.009-.01Zm-6.067-9.99 6.16 6.897L49.987 12.57l-6.16-6.896-13.784 12.322Z"/><path d="M26.138 32.752h-.076a1.283 1.283 0 0 1-.887-.422l-3.753-4.2a1.282 1.282 0 0 1 .102-1.809l7.91-7.065c.254-.228.592-.347.93-.321.338.017.659.169.887.422l3.753 4.2a1.282 1.282 0 0 1-.102 1.809l-7.91 7.065c-.237.212-.541.33-.854.33v-.009Zm-1.944-5.375 2.037 2.282 6-5.358-2.036-2.282-6 5.358ZM49.996 11.929a1.28 1.28 0 0 1-.685-2.367l3.643-2.273-3.533-3.955-2.67 3.363c-.44.558-1.243.651-1.8.212a1.28 1.28 0 0 1-.212-1.8L48.348.553c.236-.295.591-.473.963-.481.372-.009.744.143.997.43l5.57 6.23a1.285 1.285 0 0 1-.28 1.943l-4.935 3.076a1.25 1.25 0 0 1-.676.195l.009-.017Z"/></g><path fill="#4358C1" d="M33.888 64.36a1.281 1.281 0 0 1-1.251-1.014 1.278 1.278 0 0 1 .98-1.522C43.1 59.788 49.97 51.252 49.97 41.542c0-7.31-3.735-13.945-9.989-17.74a1.29 1.29 0 0 1-.43-1.766 1.289 1.289 0 0 1 1.765-.43C48.34 25.872 52.54 33.326 52.54 41.54c0 10.91-7.732 20.495-18.38 22.793a1.534 1.534 0 0 1-.271.026Z"/><path fill="#DB790F" d="M24.11 67.2c-.085 0-.161 0-.246-.026-7.183-1.395-13.344-5.89-16.893-12.322a1.28 1.28 0 0 1 .507-1.74 1.28 1.28 0 0 1 1.74.506 22.037 22.037 0 0 0 15.137 11.046 1.283 1.283 0 0 1-.245 2.544v-.009Z"/><path fill="#4358C1" d="M34.343 69.929c-.6 0-1.14-.431-1.259-1.04a1.285 1.285 0 0 1 1.023-1.504C46.74 64.976 55.91 54.041 55.91 41.398c0-7.057-2.798-13.691-7.877-18.694a1.283 1.283 0 0 1-.017-1.817 1.29 1.29 0 0 1 1.817-.017c5.57 5.485 8.637 12.77 8.637 20.52 0 13.876-10.048 25.868-23.891 28.505-.084.017-.16.026-.245.026l.008.008Z"/><path fill="#4358C1" d="M33.888 71.763c-.71 0-1.285-.575-1.285-1.285V65.29a3.376 3.376 0 0 0-3.372-3.372 3.376 3.376 0 0 0-3.372 3.372v5.19a1.284 1.284 0 1 1-2.57 0v-5.19a5.944 5.944 0 0 1 5.942-5.94 5.944 5.944 0 0 1 5.941 5.94v5.19c0 .71-.574 1.284-1.284 1.284Z"/></g><defs><clipPath id="a"><path fill="#fff" d="M.328.055h58.144v76.39H.328z"/></clipPath></defs></svg>