<svg xmlns="http://www.w3.org/2000/svg" width="63" height="78" fill="none"><g clip-path="url(#a)"><path fill="#4358C1" d="M21.695 66.96a21.04 21.04 0 0 1-14.923-6.174C-.284 53.74-1.41 42.576 4.078 34.251L20.62 9.164a1.279 1.279 0 0 1 1.076-.576 1.3 1.3 0 0 1 1.076.576l5.691 8.63a1.283 1.283 0 1 1-2.143 1.415l-4.616-7.004-15.482 23.46c-4.82 7.31-3.828 17.11 2.363 23.3a18.42 18.42 0 0 0 13.102 5.43 18.42 18.42 0 0 0 13.103-5.43 18.514 18.514 0 0 0 5.404-12.128c.034-.712.626-1.245 1.355-1.22a1.276 1.276 0 0 1 1.21 1.355 21.049 21.049 0 0 1-6.148 13.806 21.04 21.04 0 0 1-14.924 6.174l.009.009Z"/><path fill="#DB790F" d="M44.258 42.12c-3.921 0-7.85-1.491-10.84-4.481-5.125-5.124-5.946-13.23-1.957-19.277L43.183.576A1.279 1.279 0 0 1 44.258 0a1.3 1.3 0 0 1 1.076.576l11.722 17.778c3.99 6.047 3.168 14.152-1.956 19.276a15.272 15.272 0 0 1-10.842 4.48v.01Zm-9.02-6.302c4.972 4.972 13.069 4.972 18.04 0 4.26-4.26 4.947-11.01 1.627-16.041L44.25 3.624 33.595 19.776c-3.32 5.032-2.634 11.782 1.626 16.042h.017Z"/><path fill="#4358C1" d="M52.026 77.48a10.694 10.694 0 0 1-7.598-3.142c-3.59-3.591-4.167-9.274-1.372-13.51l7.894-11.975a1.279 1.279 0 0 1 1.076-.576 1.3 1.3 0 0 1 1.075.576l7.894 11.976c2.795 4.235 2.219 9.918-1.372 13.509a10.667 10.667 0 0 1-7.597 3.15v-.008Zm0-25.587-6.827 10.35c-2.126 3.227-1.685 7.547 1.042 10.274a8.132 8.132 0 0 0 5.776 2.397 8.097 8.097 0 0 0 5.776-2.397c2.728-2.727 3.168-7.055 1.042-10.274l-6.826-10.35h.017Z"/></g><defs><clipPath id="a"><path fill="#fff" d="M.614 0h62.142v77.48H.614z"/></clipPath></defs></svg>