<svg xmlns="http://www.w3.org/2000/svg" width="51" height="73" fill="none"><g clip-path="url(#a)"><path fill="#4358C1" d="M44.109 72.864H6.89a3.168 3.168 0 0 1-3.167-3.166v-53.94a1.283 1.283 0 1 1 2.568 0v53.94c0 .337.27.608.608.608h37.217c.338 0 .608-.27.608-.608v-53.94a1.283 1.283 0 1 1 2.568 0v53.94a3.168 3.168 0 0 1-3.167 3.166h-.017Z"/><path fill="#4358C1" d="M40.975 65.45h-28.19c-.709 0-1.283-.575-1.283-1.284V23.173c0-.709.574-1.283 1.284-1.283h28.19a1.283 1.283 0 1 1 0 2.567H14.06v38.434h26.914a1.283 1.283 0 1 1 0 2.567v-.008Z"/><path fill="#DB790F" d="M48.762 11.916H2.246A2.25 2.25 0 0 1 0 9.67V2.246A2.245 2.245 0 0 1 2.246 0h46.516a2.25 2.25 0 0 1 2.246 2.246v7.432a2.25 2.25 0 0 1-2.246 2.246v-.008ZM2.567 9.357h45.874v-6.79H2.567v6.79Z"/><g fill="#DB790F"><path d="M8.234 7.237c-.71 0-1.284-.574-1.284-1.283v-4.67a1.283 1.283 0 1 1 2.568 0v4.678c0 .71-.575 1.284-1.284 1.284v-.009ZM15.142 7.237c-.71 0-1.284-.574-1.284-1.283v-4.67a1.283 1.283 0 1 1 2.568 0v4.678c0 .71-.574 1.284-1.284 1.284v-.009ZM22.05 7.237c-.709 0-1.283-.574-1.283-1.283v-4.67a1.283 1.283 0 1 1 2.567 0v4.678c0 .71-.574 1.284-1.284 1.284v-.009ZM28.959 7.237c-.71 0-1.284-.574-1.284-1.283v-4.67a1.283 1.283 0 1 1 2.567 0v4.678c0 .71-.574 1.284-1.283 1.284v-.009ZM35.866 7.237c-.71 0-1.284-.574-1.284-1.283v-4.67a1.283 1.283 0 1 1 2.568 0v4.678c0 .71-.575 1.284-1.284 1.284v-.009ZM42.775 7.237c-.71 0-1.284-.574-1.284-1.283v-4.67a1.283 1.283 0 1 1 2.567 0v4.678c0 .71-.574 1.284-1.283 1.284v-.009Z"/></g></g><defs><clipPath id="a"><path fill="#fff" d="M0 0h51v72.864H0z"/></clipPath></defs></svg>