<svg xmlns="http://www.w3.org/2000/svg" width="73" height="68" fill="none"><g clip-path="url(#a)"><g fill="#DB790F"><path d="M55.607 67.055c-9.495 0-17.22-7.725-17.22-17.22 0-7.257 4.666-13.813 11.453-16.232V12.178a1.13 1.13 0 0 1 1.131-1.132h9.28a1.13 1.13 0 0 1 1.131 1.132v21.425c6.788 2.419 11.454 8.968 11.454 16.231 0 9.496-7.725 17.22-17.221 17.22h-.008Zm-3.512-53.746v21.113c0 .498-.328.937-.804 1.079-6.266 1.883-10.65 7.777-10.65 14.326 0 8.253 6.713 14.958 14.959 14.958 8.246 0 14.958-6.713 14.958-14.958 0-6.55-4.376-12.443-10.65-14.326a1.125 1.125 0 0 1-.803-1.08V13.31h-7.018.008Z"/><path d="M62.41 13.309H48.812a1.13 1.13 0 1 1 0-2.262h13.596a1.13 1.13 0 1 1 0 2.262ZM69.933 44.334H46.43a1.13 1.13 0 1 1 0-2.262h23.502a1.13 1.13 0 1 1 0 2.262ZM60.243 19.18h-2.605a1.13 1.13 0 1 1 0-2.262h2.605a1.13 1.13 0 1 1 0 2.263ZM60.243 24.62h-2.605a1.13 1.13 0 1 1 0-2.262h2.605a1.13 1.13 0 1 1 0 2.263ZM60.243 30.06h-2.605a1.13 1.13 0 1 1 0-2.262h2.605a1.13 1.13 0 1 1 0 2.263Z"/></g><g fill="#4358C1"><path d="M37.076 66.08H9.571A8.801 8.801 0 0 1 2.07 52.684l13.946-22.75V1.186a1.13 1.13 0 0 1 1.13-1.131h12.347a1.13 1.13 0 0 1 1.131 1.131v28.756l6.98 11.379a1.135 1.135 0 0 1-.371 1.555 1.135 1.135 0 0 1-1.556-.372L28.533 30.85a1.096 1.096 0 0 1-.164-.588V2.317H18.278v27.945c0 .208-.06.409-.164.588L3.997 53.868a6.515 6.515 0 0 0-.968 3.415 6.543 6.543 0 0 0 6.534 6.535H37.07a6.531 6.531 0 0 0 2.947-.7 1.128 1.128 0 0 1 1.518.499c.283.558.06 1.235-.499 1.518a8.7 8.7 0 0 1-3.966.945h.007Z"/><path d="M31.39 2.317H15.256a1.13 1.13 0 1 1 0-2.262H31.39a1.13 1.13 0 1 1 0 2.262ZM29.261 9.275h-3.096a1.13 1.13 0 1 1 0-2.262h3.096a1.13 1.13 0 1 1 0 2.262ZM29.261 15.728h-3.096a1.13 1.13 0 1 1 0-2.263h3.096a1.13 1.13 0 1 1 0 2.263ZM29.261 22.187h-3.096a1.13 1.13 0 1 1 0-2.262h3.096a1.13 1.13 0 1 1 0 2.262Z"/></g></g><defs><clipPath id="a"><path fill="#fff" d="M.773.055h72.053v67H.773z"/></clipPath></defs></svg>