<svg xmlns="http://www.w3.org/2000/svg" width="32" height="36" fill="none"><g fill="#fff" clip-path="url(#a)"><path d="M28.857 35.391h-18.02a1.534 1.534 0 0 1-1.533-1.533V7.74a.621.621 0 1 1 1.243 0v26.117c0 .163.13.294.294.294h18.02c.164 0 .295-.13.295-.294V7.74a.621.621 0 1 1 1.243 0v26.117c0 .846-.687 1.533-1.534 1.533h-.008Z"/><path d="M27.34 31.801H13.69a.621.621 0 0 1-.62-.621V11.33c0-.343.277-.621.62-.621h13.65a.621.621 0 1 1 0 1.243H14.308v18.61H27.34a.621.621 0 1 1 0 1.242v-.004ZM31.11 5.88H8.588A1.09 1.09 0 0 1 7.5 4.794V1.199C7.5.598 7.987.11 8.588.11H31.11A1.09 1.09 0 0 1 32.198 1.2v3.598a1.09 1.09 0 0 1-1.088 1.088V5.88ZM8.743 4.639h22.212V1.354H8.743v3.288-.004Z"/><path d="M11.487 3.615a.621.621 0 0 1-.622-.621V.733a.621.621 0 1 1 1.243 0v2.265a.621.621 0 0 1-.621.621v-.004ZM14.831 3.615a.621.621 0 0 1-.621-.621V.733a.621.621 0 1 1 1.243 0v2.265a.621.621 0 0 1-.622.621v-.004ZM18.176 3.615a.621.621 0 0 1-.621-.621V.733a.621.621 0 1 1 1.243 0v2.265a.621.621 0 0 1-.622.621v-.004ZM21.52 3.615a.621.621 0 0 1-.62-.621V.733a.621.621 0 1 1 1.242 0v2.265a.621.621 0 0 1-.621.621v-.004ZM24.866 3.615a.621.621 0 0 1-.621-.621V.733a.621.621 0 1 1 1.243 0v2.265a.621.621 0 0 1-.622.621v-.004ZM28.212 3.615a.621.621 0 0 1-.622-.621V.733a.621.621 0 1 1 1.243 0v2.265a.621.621 0 0 1-.621.621v-.004Z"/></g><defs><clipPath id="a"><path fill="#fff" d="M.5.084h31v35H.5z"/></clipPath></defs></svg>